#N canvas 213 315 769 542 10;
#X declare -stdpath moonlib;
#X declare -path absGAMME;
#X declare -lib motex -stdpath extra/motex -lib zexy;
#X declare -stdpath Fraise -stdpath ggee -stdpath moonlib;
#X declare -stdpath iemlib -lib iemlib1 -stdpath creb -lib creb;
#N canvas 70 173 1366 690 tests 0;
#X obj 95 56 adc~;
#X obj 95 78 tabwrite~ \$0-t;
#X obj 1178 633 table \$0-t 1e+06;
#X obj 160 26 bng 15 250 50 0 empty empty empty 17 7 0 10 -262144 -1
-1;
#X obj 132 178 tabplay~ \$0-t;
#X obj 124 230 dac~;
#X obj 129 127 bng 15 250 50 0 empty empty empty 17 7 0 10 -262144
-1 -1;
#X obj 247 372 readsf~ 1;
#X obj 247 394 *~;
#X obj 235 434 dac~;
#X obj 462 394 pack s s;
#X obj 530 393 r DATASDIR;
#X msg 247 336 stop \, open \$1 \, start;
#X obj 300 407 hsl 128 15 0 1 0 0 empty empty empty -2 -8 0 10 -262144
-1 -1 0 1;
#X obj 297 426 pow 2;
#X msg 297 448 \$1 10;
#X obj 297 470 line~;
#X floatatom 487 329 5 1 5 0 - - -, f 5;
#X msg 462 416 symbol \$2/\$1.wav;
#X obj 463 365 makefilename 0NotesAccordeon/Nacc%02d;
#X floatatom 610 302 5 1 31 0 - - -, f 5;
#X obj 609 329 makefilename 0NotesAccordeonBosseur/%02dAccBosseur;
#X obj 380 433 fiddle~;
#X floatatom 378 473 5 0 0 0 - - -, f 5;
#X obj 585 461 pack 1 1;
#X floatatom 582 425 5 0 0 0 - - -, f 5;
#X obj 627 392 hradio 15 1 0 8 empty empty empty 0 -8 0 10 -262144
-1 -1 2;
#X obj 627 412 + 1;
#X obj 491 461 print;
#X msg 584 484 symbol NOTES/\$2/\$1;
#X obj 698 434 hradio 15 1 0 8 empty empty empty 0 -8 0 10 -262144
-1 -1 6;
#X obj 696 453 + 1;
#X obj 416 233 pack 1 1;
#X floatatom 413 197 5 0 0 0 - - -, f 5;
#X obj 458 164 hradio 15 1 0 8 empty empty empty 0 -8 0 10 -262144
-1 -1 2;
#X obj 458 184 + 1;
#X obj 529 206 hradio 15 1 0 8 empty empty empty 0 -8 0 10 -262144
-1 -1 0;
#X obj 527 225 + 1;
#X obj 652 227 pack 1 1;
#X floatatom 652 202 5 0 0 0 - - -, f 5;
#X obj 652 159 hradio 15 1 0 8 empty empty empty 0 -8 0 10 -262144
-1 -1 0;
#X obj 652 179 + 1;
#X obj 763 219 + 1;
#X msg 651 253 symbol BOUCLES/\$2/\$1;
#X msg 415 256 symbol PROSES/\$2/\$1;
#X msg 321 273 stop;
#X obj 779 137 vradio 15 1 0 5 empty empty empty 0 -8 0 10 -262144
-1 -1 0;
#X text 797 135 grenouille;
#X text 800 151 grosBosseur;
#X text 800 166 techno;
#X text 801 183 woodKid;
#X text 801 198 zulma;
#X obj 378 50 declare -stdpath moonlib;
#X obj 1138 569 r DATASDIR;
#X obj 1070 524 pack 1 1;
#X floatatom 1070 499 5 0 0 0 - - -, f 5;
#X obj 1070 456 hradio 15 1 0 8 empty empty empty 0 -8 0 10 -262144
-1 -1 0;
#X obj 1070 476 + 1;
#X obj 1237 576 + 1;
#X msg 1070 547 symbol BOUCLES/\$2/\$1;
#X obj 1237 494 vradio 15 1 0 5 empty empty empty 0 -8 0 10 -262144
-1 -1 4;
#X obj 1070 664 soundfiler;
#X obj 1070 570 pack s s;
#X obj 1070 615 list append \$0-t;
#X msg 1070 592 symbol \$2/\$1.wav;
#X msg 1070 641 read \$1 \$2;
#X text 1252 492 grenouille;
#X text 1255 508 grosBosseur;
#X text 1255 523 techno;
#X text 1256 540 woodKid;
#X text 1256 555 zulma;
#X floatatom 1015 714 8 0 0 0 - - -, f 8;
#X obj 1070 686 s \$0-t-len;
#X obj 907 494 r \$0-t-len;
#X obj 801 462 r CLOCK;
#X obj 850 582 *;
#X obj 850 633 pack f f f;
#X obj 820 551 t f f;
#X obj 878 582 + 1;
#X obj 878 602 *;
#X msg 850 655 \$1 \, \$2 \$3;
#X obj 850 677 line~;
#X obj 850 699 tabread4~ \$0-t;
#X obj 651 646 *~;
#X obj 698 631 hsl 128 15 0 1 0 1 empty empty empty -2 -8 0 10 -262144
-1 -1 9100 1;
#X obj 701 678 pow 2;
#X msg 701 700 \$1 10;
#X obj 701 722 line~;
#X floatatom 691 591 8 0 0 0 - - -, f 8;
#X floatatom 995 571 8 0 0 0 - - -, f 8;
#X obj 914 608 / 48;
#X obj 820 528 / 1;
#X obj 907 520 / 32;
#X floatatom 998 629 5 0 0 0 - - -, f 5;
#X obj 936 580 t b f;
#X floatatom 933 558 5 0 0 0 - - -, f 5;
#X obj 103 259 r CLOCK;
#X obj 104 281 unpack f;
#X obj 104 327 mod 2;
#X obj 104 349 sel 0;
#X obj 104 393 line~;
#X obj 103 481 osc~;
#X obj 154 474 line~;
#X obj 103 503 *~;
#X obj 101 535 *~;
#X obj 154 548 hsl 128 15 0 1 0 1 empty empty empty -2 -8 0 10 -262144
-1 -1 6100 1;
#X obj 151 567 pow 2;
#X msg 151 589 \$1 10;
#X obj 151 611 line~;
#X floatatom 756 607 5 0 0 0 - - -, f 5;
#X msg 1133 480 9;
#N canvas 583 74 770 689 ACCORDS-ZULMA 0;
#X obj 89 279 GAMMEKB g1;
#X obj 269 294 s g1;
#X msg 261 257 0;
#X msg 304 254 1;
#X obj 193 283 r g1;
#X floatatom 193 305 5 0 0 0 - - -, f 5;
#X msg 381 253 2741;
#X obj 412 120 loadbang;
#X obj 412 144 del 100;
#X obj 95 356 GAMMEKB g2;
#X obj 269 378 s g2;
#X msg 269 354 145;
#X obj 110 601 ssaw~;
#X obj 110 623 lop~;
#X obj 110 573 mtof;
#X obj 151 602 * 2;
#X obj 216 603 ssaw~;
#X obj 216 625 lop~;
#X obj 216 575 mtof;
#X obj 257 604 * 2;
#X obj 320 603 ssaw~;
#X obj 320 625 lop~;
#X obj 320 575 mtof;
#X obj 361 604 * 2;
#X obj 426 604 ssaw~;
#X obj 426 626 lop~;
#X obj 426 576 mtof;
#X obj 467 605 * 2;
#X obj 521 268 bng 15 250 50 0 empty empty empty 17 7 0 10 -262144
-1 -1;
#X obj 279 701 pow 2;
#X obj 344 673 hsl 128 15 0 1 0 1 empty empty empty -2 -8 0 10 -262144
-1 -1 5400 1;
#X obj 111 505 gammeRound g2 50;
#X obj 216 505 gammeRound g2 50;
#X obj 321 507 gammeRound g2 50;
#X obj 427 508 gammeRound g2 50;
#X floatatom 594 541 5 0 0 0 - - -, f 5;
#X obj 111 484 + 0;
#X obj 428 485 + 7;
#X obj 111 544 +;
#X obj 217 545 +;
#X obj 321 546 +;
#X obj 427 547 +;
#X floatatom 504 415 5 0 0 0 - - -, f 5;
#X obj 139 542 t b f;
#X obj 248 547 t b f;
#X obj 346 550 t b f;
#X obj 453 547 t b f;
#X floatatom 272 419 5 0 0 0 - - -, f 5;
#X floatatom 209 381 5 0 0 0 - - -, f 5;
#X obj 209 359 r g2;
#X msg 338 352 545;
#X msg 371 351 2180;
#X msg 298 351 580;
#X obj 216 481 + 3.9;
#X obj 319 482 + 4.9;
#X msg 372 414 60.13;
#X obj 594 178 text get zulma;
#X floatatom 592 118 5 0 0 0 - - -, f 5;
#X obj 607 290 list split;
#X obj 607 266 list;
#X obj 637 236 t b f;
#X obj 635 314 list split 1;
#X floatatom 635 348 5 0 0 0 - - -, f 5;
#X floatatom 689 208 5 0 0 0 - - -, f 5;
#X obj 360 122 inlet;
#X floatatom 48 581 5 0 0 0 - - -, f 5;
#X obj 242 733 *~;
#X obj 228 701 hip~ 50;
#X obj 362 309 sel 0 2 4 5 6;
#X msg 410 355 529;
#X msg 340 254 2774;
#X obj 340 226 sel 2;
#X obj 360 148 f;
#X msg 412 166 0;
#X msg 42 25 write zulma_bak.txt;
#X obj 625 455 switch~;
#X obj 625 432 tgl 15 0 empty empty empty 17 7 0 10 -262144 -1 -1 0
1;
#X obj 505 390 r TRANSPOSE_OFFSET;
#X obj 382 387 loadbang;
#X obj 518 326 loadbang;
#X obj 519 368 s TRANSPOSE_OFFSET;
#X msg 518 348 -5;
#X obj 231 760 out~;
#X obj 42 49 text define -k zulma--;
#A set;
#X connect 2 0 1 0;
#X connect 3 0 1 0;
#X connect 4 0 5 0;
#X connect 6 0 1 0;
#X connect 7 0 8 0;
#X connect 8 0 73 0;
#X connect 11 0 10 0;
#X connect 12 0 13 0;
#X connect 13 0 67 0;
#X connect 14 0 15 0;
#X connect 14 0 12 0;
#X connect 15 0 13 1;
#X connect 16 0 17 0;
#X connect 17 0 67 0;
#X connect 18 0 19 0;
#X connect 18 0 16 0;
#X connect 19 0 17 1;
#X connect 20 0 21 0;
#X connect 21 0 67 0;
#X connect 22 0 23 0;
#X connect 22 0 20 0;
#X connect 23 0 21 1;
#X connect 24 0 25 0;
#X connect 25 0 67 0;
#X connect 26 0 27 0;
#X connect 26 0 24 0;
#X connect 27 0 25 1;
#X connect 29 0 66 1;
#X connect 30 0 29 0;
#X connect 31 0 38 0;
#X connect 32 0 39 0;
#X connect 33 0 40 0;
#X connect 34 0 35 0;
#X connect 34 0 41 0;
#X connect 36 0 31 0;
#X connect 37 0 34 0;
#X connect 38 0 14 0;
#X connect 38 0 65 0;
#X connect 39 0 18 0;
#X connect 40 0 22 0;
#X connect 41 0 26 0;
#X connect 42 0 46 0;
#X connect 42 0 45 0;
#X connect 42 0 44 0;
#X connect 42 0 43 0;
#X connect 43 0 38 0;
#X connect 43 1 38 1;
#X connect 44 0 39 0;
#X connect 44 1 39 1;
#X connect 45 0 40 0;
#X connect 45 1 40 1;
#X connect 46 0 41 0;
#X connect 46 1 41 1;
#X connect 47 0 36 0;
#X connect 47 0 37 0;
#X connect 47 0 53 0;
#X connect 47 0 54 0;
#X connect 49 0 48 0;
#X connect 50 0 10 0;
#X connect 51 0 10 0;
#X connect 52 0 10 0;
#X connect 53 0 32 0;
#X connect 54 0 33 0;
#X connect 55 0 47 0;
#X connect 56 0 59 1;
#X connect 57 0 56 0;
#X connect 58 1 61 0;
#X connect 59 0 58 0;
#X connect 60 0 59 0;
#X connect 60 1 58 1;
#X connect 61 0 62 0;
#X connect 63 0 60 0;
#X connect 64 0 72 0;
#X connect 66 0 82 0;
#X connect 66 0 82 1;
#X connect 67 0 66 0;
#X connect 68 0 11 0;
#X connect 68 1 52 0;
#X connect 68 2 50 0;
#X connect 68 3 51 0;
#X connect 68 4 69 0;
#X connect 69 0 10 0;
#X connect 70 0 1 0;
#X connect 71 0 70 0;
#X connect 71 1 6 0;
#X connect 72 0 71 0;
#X connect 72 0 68 0;
#X connect 73 0 72 0;
#X connect 74 0 83 0;
#X connect 76 0 75 0;
#X connect 77 0 42 0;
#X connect 78 0 55 0;
#X connect 79 0 81 0;
#X connect 81 0 80 0;
#X restore 490 660 pd ACCORDS-ZULMA;
#X msg 1103 480 1;
#N canvas 4 79 593 489 get_chord 0;
#X obj 138 163 text get zulma;
#X floatatom 159 112 5 0 0 0 - - -, f 5;
#X obj 151 275 list split;
#X obj 151 251 list;
#X obj 181 221 t b f;
#X obj 179 299 list split 1;
#X floatatom 179 333 5 0 0 0 - - -, f 5;
#X floatatom 233 193 5 0 0 0 - - -, f 5;
#X obj 137 65 inlet mesure;
#X obj 236 63 inlet step;
#X obj 151 367 outlet;
#X obj 63 225 print;
#X msg 70 121 1;
#X obj 137 87 - 1;
#X obj 236 85 + 1;
#X connect 0 0 3 1;
#X connect 1 0 0 0;
#X connect 2 1 5 0;
#X connect 3 0 2 0;
#X connect 4 0 3 0;
#X connect 4 1 2 1;
#X connect 5 0 6 0;
#X connect 5 0 10 0;
#X connect 7 0 4 0;
#X connect 8 0 13 0;
#X connect 9 0 14 0;
#X connect 12 0 0 0;
#X connect 13 0 0 0;
#X connect 14 0 7 0;
#X restore 548 610 pd get_chord;
#X floatatom 548 632 5 0 0 0 - - -, f 5;
#X msg 1162 481 17;
#X msg 1107 498 25;
#X msg 1136 499 33;
#X msg 1022 491 41;
#X obj 279 673 sel 1;
#X obj 278 694 tgl 15 0 empty empty empty 17 7 0 10 -262144 -1 -1 0
1;
#X obj 104 303 spigot;
#X obj 1090 294 sel 1;
#X obj 1089 315 tgl 15 0 empty empty empty 17 7 0 10 -262144 -1 -1
0 1;
#X obj 701 654 *;
#X obj 732 654 t b f;
#X obj 1235 449 loadbang;
#X msg 1241 470 4;
#X obj 1133 333 clip -1 1;
#X obj 1211 331 clip -1 1;
#X obj 1133 355 atan2;
#X obj 1139 377 sin;
#X obj 1144 296 unpack f f f;
#X obj 1188 360 + 1;
#X obj 1188 382 / 2;
#X obj 1188 404 * 40.9;
#X obj 1188 426 i;
#X obj 1188 448 change;
#X msg 180 390 0.25;
#X floatatom 166 435 5 0 0 0 - - -, f 5;
#X obj 104 415 pow~ 7;
#X obj 104 458 +~ 30;
#X obj 103 438 *~ 200;
#X msg 104 371 1 \, 0 300;
#X obj 756 585 div 2;
#X obj 801 484 ndmetro;
#X msg 874 463 nd 32 2;
#X obj 871 437 loadbang;
#X obj 89 575 out~;
#X obj 639 686 out~;
#X obj 289 644 boutonled 1 6;
#X obj 1097 248 boutonled 10 1;
#X connect 0 0 1 0;
#X connect 3 0 1 0;
#X connect 4 0 5 0;
#X connect 4 0 5 1;
#X connect 6 0 4 0;
#X connect 7 0 8 0;
#X connect 7 0 22 0;
#X connect 8 0 9 0;
#X connect 8 0 9 1;
#X connect 10 0 18 0;
#X connect 11 0 10 1;
#X connect 12 0 7 0;
#X connect 13 0 14 0;
#X connect 14 0 15 0;
#X connect 15 0 16 0;
#X connect 16 0 8 1;
#X connect 17 0 19 0;
#X connect 18 0 12 0;
#X connect 18 0 28 0;
#X connect 19 0 10 0;
#X connect 20 0 21 0;
#X connect 21 0 10 0;
#X connect 22 0 23 0;
#X connect 24 0 29 0;
#X connect 25 0 24 0;
#X connect 26 0 27 0;
#X connect 27 0 25 0;
#X connect 29 0 10 0;
#X connect 30 0 31 0;
#X connect 31 0 24 1;
#X connect 32 0 44 0;
#X connect 33 0 32 0;
#X connect 34 0 35 0;
#X connect 35 0 33 0;
#X connect 36 0 37 0;
#X connect 37 0 32 1;
#X connect 38 0 43 0;
#X connect 39 0 38 0;
#X connect 40 0 41 0;
#X connect 41 0 39 0;
#X connect 42 0 38 1;
#X connect 43 0 10 0;
#X connect 44 0 10 0;
#X connect 45 0 7 0;
#X connect 46 0 42 0;
#X connect 53 0 62 1;
#X connect 54 0 59 0;
#X connect 55 0 54 0;
#X connect 55 0 113 0;
#X connect 56 0 57 0;
#X connect 57 0 55 0;
#X connect 58 0 54 1;
#X connect 59 0 62 0;
#X connect 60 0 58 0;
#X connect 61 0 71 0;
#X connect 61 0 72 0;
#X connect 62 0 64 0;
#X connect 63 0 65 0;
#X connect 64 0 63 0;
#X connect 65 0 61 0;
#X connect 73 0 92 0;
#X connect 74 0 145 0;
#X connect 75 0 76 0;
#X connect 76 0 80 0;
#X connect 77 0 75 0;
#X connect 77 0 88 0;
#X connect 77 0 144 0;
#X connect 77 1 78 0;
#X connect 78 0 79 0;
#X connect 79 0 76 1;
#X connect 80 0 81 0;
#X connect 81 0 82 0;
#X connect 82 0 83 0;
#X connect 83 0 149 0;
#X connect 83 0 149 1;
#X connect 84 0 124 0;
#X connect 85 0 86 0;
#X connect 86 0 87 0;
#X connect 90 0 76 2;
#X connect 91 0 77 0;
#X connect 92 0 75 1;
#X connect 92 0 79 1;
#X connect 92 0 89 0;
#X connect 92 0 90 0;
#X connect 94 0 90 0;
#X connect 94 1 90 1;
#X connect 95 0 94 0;
#X connect 96 0 97 0;
#X connect 97 0 121 0;
#X connect 98 0 99 0;
#X connect 99 0 143 0;
#X connect 99 0 138 0;
#X connect 100 0 103 1;
#X connect 100 0 140 0;
#X connect 101 0 103 0;
#X connect 102 0 103 1;
#X connect 104 0 148 0;
#X connect 104 0 148 1;
#X connect 105 0 106 0;
#X connect 106 0 107 0;
#X connect 107 0 108 0;
#X connect 108 0 104 1;
#X connect 110 0 57 1;
#X connect 112 0 57 1;
#X connect 113 0 114 0;
#X connect 113 0 111 0;
#X connect 115 0 57 1;
#X connect 116 0 57 1;
#X connect 117 0 57 1;
#X connect 118 0 55 0;
#X connect 119 0 120 0;
#X connect 120 0 121 1;
#X connect 120 0 150 0;
#X connect 121 0 98 0;
#X connect 122 0 123 0;
#X connect 123 0 125 0;
#X connect 123 0 151 0;
#X connect 124 0 85 0;
#X connect 125 0 124 0;
#X connect 125 1 124 1;
#X connect 126 0 127 0;
#X connect 127 0 60 0;
#X connect 128 0 130 0;
#X connect 129 0 130 1;
#X connect 130 0 131 0;
#X connect 131 0 133 0;
#X connect 132 1 128 0;
#X connect 132 2 129 0;
#X connect 133 0 134 0;
#X connect 134 0 135 0;
#X connect 135 0 136 0;
#X connect 136 0 137 0;
#X connect 137 0 56 0;
#X connect 138 0 101 1;
#X connect 139 0 141 1;
#X connect 140 0 142 0;
#X connect 141 0 101 0;
#X connect 142 0 141 0;
#X connect 143 0 100 0;
#X connect 144 0 109 0;
#X connect 144 0 113 1;
#X connect 146 0 145 0;
#X connect 147 0 146 0;
#X connect 150 0 119 0;
#X connect 151 0 122 0;
#X connect 151 2 132 0;
#X restore 434 95 pd tests;
#N canvas 65 221 1029 644 accorder 0;
#X obj 115 196 readsf~ 1;
#X obj 115 218 *~;
#X obj 103 258 dac~;
#X obj 330 218 pack s s;
#X obj 398 217 r DATASDIR;
#X msg 115 160 stop \, open \$1 \, start;
#X obj 168 229 hsl 128 15 0 1 0 0 empty empty empty -2 -8 0 10 -262144
-1 -1 0 1;
#X obj 165 250 pow 2;
#X msg 165 272 \$1 10;
#X obj 142 215 line~;
#X msg 330 240 symbol \$2/\$1.wav;
#X obj 335 139 pack 1 1;
#X floatatom 332 103 5 0 0 0 - - -, f 5;
#X obj 377 70 hradio 15 1 0 31 empty empty empty 0 -8 0 10 -262144
-1 -1 3;
#X obj 377 90 + 1;
#X msg 330 196 symbol NOTES/\$2/\$1;
#X obj 448 112 hradio 15 1 0 8 empty empty empty 0 -8 0 10 -262144
-1 -1 0;
#X obj 446 131 + 1;
#X obj 246 287 fiddle~;
#X floatatom 381 304 5 0 0 0 - - -, f 5;
#X obj 381 329 mtof;
#X obj 381 395 phasor~;
#X obj 426 479 *~;
#X obj 414 519 dac~;
#X obj 448 394 hsl 128 15 0 1 0 0 empty empty empty -2 -8 0 10 -262144
-1 -1 0 1;
#X obj 445 413 pow 2;
#X msg 445 435 \$1 10;
#X obj 445 457 line~;
#X floatatom 245 314 5 0 0 0 - - -, f 5;
#X obj 245 333 spigot;
#X obj 325 290 tgl 15 0 empty empty empty 17 7 0 10 -262144 -1 -1 0
1;
#X obj 507 238 unpack f f;
#X obj 573 495 f;
#X obj 595 536 tabwrite \$0-accord;
#X obj 453 299 tabread \$0-accord;
#X obj 758 154 table \$0-accord 100;
#X obj 634 344 bng 15 250 50 0 empty empty empty 17 7 0 10 -257985
-1 -1;
#X obj 766 362 f;
#X obj 762 317 bng 15 250 50 0 empty empty empty 17 7 0 10 -258113
-1 -1;
#X obj 767 451 s \$0-accord;
#X obj 835 396 r DATASDIR;
#X obj 767 396 pack f s;
#X msg 767 424 write \$2/NOTES/\$1/notes.txt;
#X obj 880 325 r DATASDIR;
#X obj 812 325 pack f s;
#X msg 812 351 read \$2/NOTES/\$1/notes.txt;
#X obj 780 281 f;
#X obj 453 329 sel 0;
#X obj 329 373 * 48;
#X obj 327 395 / 44.1;
#X obj 375 34 inlet;
#X connect 0 0 1 0;
#X connect 0 0 18 0;
#X connect 1 0 2 0;
#X connect 1 0 2 1;
#X connect 3 0 10 0;
#X connect 4 0 3 1;
#X connect 5 0 0 0;
#X connect 6 0 7 0;
#X connect 7 0 8 0;
#X connect 8 0 9 0;
#X connect 9 0 1 1;
#X connect 10 0 5 0;
#X connect 11 0 15 0;
#X connect 11 0 31 0;
#X connect 12 0 11 0;
#X connect 13 0 14 0;
#X connect 14 0 12 0;
#X connect 15 0 3 0;
#X connect 16 0 17 0;
#X connect 17 0 11 1;
#X connect 17 0 46 0;
#X connect 18 0 28 0;
#X connect 19 0 20 0;
#X connect 19 0 32 1;
#X connect 20 0 48 0;
#X connect 21 0 22 0;
#X connect 22 0 23 0;
#X connect 22 0 23 1;
#X connect 24 0 25 0;
#X connect 25 0 26 0;
#X connect 26 0 27 0;
#X connect 27 0 22 1;
#X connect 28 0 29 0;
#X connect 29 0 19 0;
#X connect 30 0 29 1;
#X connect 31 0 33 1;
#X connect 31 0 34 0;
#X connect 32 0 33 0;
#X connect 34 0 47 0;
#X connect 36 0 32 0;
#X connect 37 0 41 0;
#X connect 38 0 37 0;
#X connect 40 0 41 1;
#X connect 41 0 42 0;
#X connect 42 0 39 0;
#X connect 43 0 44 1;
#X connect 44 0 45 0;
#X connect 45 0 39 0;
#X connect 46 0 37 1;
#X connect 46 0 44 0;
#X connect 47 1 19 0;
#X connect 48 0 49 0;
#X connect 49 0 21 0;
#X connect 50 0 13 0;
#X restore 274 117 pd accorder;
#X obj 494 175 motex/getenv HOME;
#X symbolatom 494 197 10 0 0 0 - - -, f 10;
#X obj 495 150 loadbang;
#X msg 494 216 symbol \$1/Datas;
#X obj 494 238 s DATASDIR;
#X obj 560 151 bng 15 250 50 0 empty empty empty 17 7 0 10 -262144
-1 -1;
#X obj 333 151 loadbang;
#X obj 392 151 bng 15 250 50 0 empty empty empty 17 7 0 10 -262144
-1 -1;
#X msg 333 196 symbol \$1/../../Datas;
#X obj 24 407 fruit/fruit 1 fruit2 11 ledswitch;
#X obj 26 91 pied/pied 0 41424;
#N canvas 257 179 921 577 AXL 0;
#X obj 25 29 fruit/receive fruit1;
#X obj 40 172 * 256;
#X obj 19 194 +;
#X obj 108 172 * 256;
#X obj 90 194 +;
#X obj 179 172 * 256;
#X obj 161 194 +;
#X obj 19 224 + 32768;
#X obj 19 246 mod 65536;
#X obj 19 268 - 32768;
#X obj 19 290 / 32768;
#X obj 90 215 + 32768;
#X obj 90 237 mod 65536;
#X obj 90 259 - 32768;
#X obj 90 281 / 32768;
#X obj 161 215 + 32768;
#X obj 161 237 mod 65536;
#X obj 161 259 - 32768;
#X obj 161 281 / 32768;
#X obj 161 303 * 130;
#X obj 90 303 * 116;
#X obj 19 312 * 116;
#X obj 19 147 unpack f f f f f f;
#X obj 481 100 * 256;
#X obj 460 122 +;
#X obj 523 96 * 256;
#X obj 503 122 +;
#X obj 565 96 * 256;
#X obj 544 121 +;
#X obj 503 148 change;
#X obj 544 148 change;
#X floatatom 518 254 5 0 0 0 - - -, f 5;
#X obj 463 332 hsl 128 15 -1 1 0 0 empty empty empty -2 -8 0 10 -262144
-1 -1 0 1;
#X obj 460 214 + 32768;
#X obj 460 236 mod 65536;
#X obj 460 258 - 32768;
#X obj 460 280 / 32768;
#X obj 607 334 hsl 128 15 -1 1 0 0 empty empty empty -2 -8 0 10 -262144
-1 -1 0 1;
#X obj 604 216 + 32768;
#X obj 604 238 mod 65536;
#X obj 604 260 - 32768;
#X obj 604 282 / 32768;
#X obj 753 331 hsl 128 15 -1 1 0 0 empty empty empty -2 -8 0 10 -262144
-1 -1 0 1;
#X obj 750 213 + 32768;
#X obj 750 235 mod 65536;
#X obj 750 257 - 32768;
#X obj 750 279 / 32768;
#X floatatom 666 316 5 0 0 0 - - -, f 5;
#X floatatom 813 305 5 0 0 0 - - -, f 5;
#X obj 750 301 * 130;
#X floatatom 687 273 5 0 0 0 - - -, f 5;
#X obj 604 304 * 116;
#X obj 460 302 * 116;
#X obj 460 75 unpack f f f f f f;
#X obj 25 51 route 1 2;
#X floatatom 636 119 5 0 0 0 - - -, f 5;
#X obj 460 146 change;
#X obj 779 98 t b b;
#X obj 779 120 timer;
#X floatatom 779 142 5 0 0 0 - - -, f 5;
#X floatatom 834 141 5 0 0 0 - - -, f 5;
#X obj 834 119 mavg 30;
#X obj 19 334 pack f f f;
#X obj 19 381 unpack f f f;
#X obj 19 425 mavg 50;
#X obj 19 402 t f f;
#X obj 51 471 -;
#X obj 19 447 t f f;
#X obj 51 493 * -1;
#X obj 80 426 mavg 50;
#X obj 80 403 t f f;
#X obj 112 472 -;
#X obj 80 448 t f f;
#X obj 112 494 * -1;
#X obj 145 428 mavg 50;
#X obj 145 405 t f f;
#X obj 177 474 -;
#X obj 145 450 t f f;
#X obj 177 496 * -1;
#X obj 19 540 pack f f f;
#X obj 102 540 pack f f f;
#X obj 19 356 t a a;
#X obj 217 387 s AXLRAW1;
#X obj 19 563 s AXLSLOW1;
#X obj 102 563 s AXLFAST1;
#X obj 25 99 axlprocess 1;
#X obj 248 56 print;
#X obj 120 99 axlprocess 2, f 8;
#X connect 0 0 54 0;
#X connect 1 0 2 1;
#X connect 2 0 7 0;
#X connect 3 0 4 1;
#X connect 4 0 11 0;
#X connect 5 0 6 1;
#X connect 6 0 15 0;
#X connect 7 0 8 0;
#X connect 8 0 9 0;
#X connect 9 0 10 0;
#X connect 10 0 21 0;
#X connect 11 0 12 0;
#X connect 12 0 13 0;
#X connect 13 0 14 0;
#X connect 14 0 20 0;
#X connect 15 0 16 0;
#X connect 16 0 17 0;
#X connect 17 0 18 0;
#X connect 18 0 19 0;
#X connect 19 0 62 2;
#X connect 20 0 62 1;
#X connect 21 0 62 0;
#X connect 22 0 2 0;
#X connect 22 1 1 0;
#X connect 22 2 4 0;
#X connect 22 3 3 0;
#X connect 22 4 6 0;
#X connect 22 5 5 0;
#X connect 23 0 24 1;
#X connect 24 0 56 0;
#X connect 25 0 26 1;
#X connect 26 0 29 0;
#X connect 27 0 28 1;
#X connect 28 0 30 0;
#X connect 29 0 38 0;
#X connect 30 0 43 0;
#X connect 33 0 34 0;
#X connect 34 0 35 0;
#X connect 35 0 36 0;
#X connect 36 0 52 0;
#X connect 38 0 39 0;
#X connect 39 0 40 0;
#X connect 40 0 41 0;
#X connect 41 0 51 0;
#X connect 43 0 44 0;
#X connect 44 0 45 0;
#X connect 45 0 46 0;
#X connect 46 0 49 0;
#X connect 49 0 42 0;
#X connect 49 0 48 0;
#X connect 50 0 51 1;
#X connect 51 0 37 0;
#X connect 51 0 47 0;
#X connect 52 0 32 0;
#X connect 53 0 24 0;
#X connect 53 1 23 0;
#X connect 53 2 26 0;
#X connect 53 3 25 0;
#X connect 53 4 28 0;
#X connect 53 5 27 0;
#X connect 53 5 55 0;
#X connect 53 5 57 0;
#X connect 54 0 85 0;
#X connect 54 1 87 0;
#X connect 56 0 33 0;
#X connect 57 0 58 0;
#X connect 57 1 58 1;
#X connect 58 0 59 0;
#X connect 59 0 61 0;
#X connect 61 0 60 0;
#X connect 62 0 81 0;
#X connect 63 0 65 0;
#X connect 63 1 70 0;
#X connect 63 2 75 0;
#X connect 64 0 67 0;
#X connect 65 0 64 0;
#X connect 65 1 66 1;
#X connect 66 0 68 0;
#X connect 67 0 79 0;
#X connect 67 1 66 0;
#X connect 68 0 80 0;
#X connect 69 0 72 0;
#X connect 70 0 69 0;
#X connect 70 1 71 1;
#X connect 71 0 73 0;
#X connect 72 0 79 1;
#X connect 72 1 71 0;
#X connect 73 0 80 1;
#X connect 74 0 77 0;
#X connect 75 0 74 0;
#X connect 75 1 76 1;
#X connect 76 0 78 0;
#X connect 77 0 79 2;
#X connect 77 1 76 0;
#X connect 78 0 80 2;
#X connect 79 0 83 0;
#X connect 80 0 84 0;
#X connect 81 0 63 0;
#X connect 81 1 82 0;
#X restore 199 248 pd AXL;
#X obj 333 174 getdir;
#X obj 217 50 declare -path absGAMME;
#N canvas 7 74 472 299 CLOCK 0;
#X obj 107 165 bng 15 250 50 0 empty empty empty 17 7 0 10 -262144
-1 -1;
#X obj 164 149 ndmetro;
#X floatatom 120 117 5 0 0 0 - - -, f 5;
#X obj 222 64 loadbang;
#X obj 164 171 pack f 600;
#X obj 164 193 s CLOCK;
#X obj 285 89 f;
#X msg 244 121 tempo \$1;
#X floatatom 284 72 5 0 0 0 - - -, f 5;
#X msg 293 47 600;
#X msg 178 120 -1;
#X obj 279 242 b;
#X obj 279 264 outlet;
#X obj 367 49 r TEMPO;
#X obj 367 71 * 160;
#X obj 367 93 + 40;
#X floatatom 367 167 5 0 0 0 - - -, f 5;
#X obj 367 137 /;
#X msg 367 115 60000 \$1;
#X floatatom 327 125 5 0 0 0 - - -, f 5;
#X obj 100 258 moonlib/ndmetro;
#X msg 222 84 nd 32 1;
#X msg 164 93 0 450;
#X connect 1 0 2 0;
#X connect 1 0 4 0;
#X connect 1 0 11 0;
#X connect 3 0 21 0;
#X connect 3 0 22 0;
#X connect 4 0 5 0;
#X connect 6 0 7 0;
#X connect 6 0 4 1;
#X connect 7 0 1 0;
#X connect 8 0 6 0;
#X connect 9 0 8 0;
#X connect 10 0 1 0;
#X connect 11 0 12 0;
#X connect 13 0 14 0;
#X connect 14 0 15 0;
#X connect 15 0 18 0;
#X connect 15 0 19 0;
#X connect 17 0 16 0;
#X connect 17 0 6 0;
#X connect 18 0 17 0;
#X connect 21 0 1 0;
#X connect 22 0 1 0;
#X restore 650 48 pd CLOCK;
#X obj 650 69 bng 15 250 50 0 empty empty empty 17 7 0 10 -262144 -1
-1;
#N canvas 819 359 450 300 MASTER 1;
#X obj 92 26 catch~ outl;
#X obj 192 25 catch~ outr;
#X obj 128 119 limiter~;
#X obj 91 119 z~ 64;
#X obj 91 141 *~;
#X obj 111 207 dac~;
#X obj 230 119 limiter~;
#X obj 193 119 z~ 64;
#X obj 193 141 *~;
#X msg 314 72 \$1 20;
#X obj 314 94 line~;
#X obj 314 28 r VOLUME;
#X obj 314 50 pow 2;
#X floatatom 381 93 5 0 0 0 - - -, f 5;
#X obj 91 74 *~;
#X obj 193 74 *~;
#X obj 381 27 loadbang;
#X msg 381 49 0.3;
#X obj 92 51 hip~ 5;
#X obj 192 49 hip~ 5;
#X obj 64 176 sig~ 0.0005;
#X connect 0 0 18 0;
#X connect 1 0 19 0;
#X connect 2 0 4 1;
#X connect 3 0 4 0;
#X connect 4 0 5 1;
#X connect 6 0 8 1;
#X connect 7 0 8 0;
#X connect 8 0 5 0;
#X connect 9 0 10 0;
#X connect 10 0 14 1;
#X connect 10 0 15 1;
#X connect 11 0 12 0;
#X connect 12 0 9 0;
#X connect 12 0 13 0;
#X connect 14 0 3 0;
#X connect 14 0 2 0;
#X connect 15 0 7 0;
#X connect 15 0 6 0;
#X connect 16 0 17 0;
#X connect 17 0 10 0;
#X connect 18 0 14 0;
#X connect 19 0 15 0;
#X connect 20 0 5 1;
#X connect 20 0 5 0;
#X restore 648 15 pd MASTER;
#X obj 215 16 declare -lib motex -stdpath extra/motex -lib zexy;
#X obj 215 32 declare -stdpath Fraise -stdpath ggee -stdpath moonlib
;
#X obj 21 187 fruit/fruit 1 fruit1 10 ledswitchaxl;
#N canvas 234 91 760 676 buttons 0;
#X floatatom 271 346 8 0 0 0 - - -, f 8;
#X floatatom 289 320 8 0 0 0 - - -, f 8;
#X floatatom 308 294 8 0 0 0 - - -, f 8;
#X floatatom 327 268 8 0 0 0 - - -, f 8;
#X obj 271 212 route s;
#X obj 25 138 analog/parse;
#X obj 40 180 route 0 1;
#X floatatom 44 221 5 0 0 0 - - -, f 5;
#X floatatom 104 215 5 0 0 0 - - -, f 5;
#X obj 271 237 route 0 1 2 3 4 5;
#X floatatom 370 303 8 0 0 0 - - -, f 8;
#X floatatom 389 277 8 0 0 0 - - -, f 8;
#X obj 32 287 s VOLUME;
#X obj 93 289 s TEMPO;
#X obj 32 243 / 8192;
#X obj 32 265 clip 0 1;
#X obj 93 247 / 8192;
#X obj 93 269 clip 0 1;
#X obj 152 269 hsl 128 15 0 1 0 0 empty empty empty -2 -8 0 10 -262144
-1 -1 0 1;
#X obj 86 229 hsl 128 15 0 1 0 0 empty empty empty -2 -8 0 10 -262144
-1 -1 0 1;
#X obj 25 116 fruit/receive fruit2;
#X obj 105 355 unpack f f;
#X obj 100 585 f;
#X obj 103 427 <<;
#X msg 103 406 1 \$1;
#X obj 105 377 t f f;
#X obj 103 449 t f f;
#X obj 90 508 -;
#X obj 90 552 |;
#X floatatom 92 611 5 0 0 0 - - -, f 5;
#X obj 106 311 tgl 15 0 empty empty empty 17 7 0 10 -262144 -1 -1 0
1;
#X msg 106 332 0 \$1;
#X msg 461 611 L\$1;
#X obj 440 590 tgl 15 0 empty empty empty 17 7 0 10 -262144 -1 -1 0
1;
#X msg 438 630 L\$1;
#X obj 439 612 tgl 15 0 empty empty empty 17 7 0 10 -262144 -1 -1 0
1;
#X obj 441 548 tgl 15 0 empty empty empty 17 7 0 10 -262144 -1 -1 0
1;
#X obj 441 567 metro 350;
#X msg 297 586 c 10 c \$1;
#X msg 503 597 c 10 c \$1;
#X floatatom 495 193 8 0 0 0 - - -, f 8;
#X floatatom 513 167 8 0 0 0 - - -, f 8;
#X floatatom 532 141 8 0 0 0 - - -, f 8;
#X floatatom 551 115 8 0 0 0 - - -, f 8;
#X obj 263 9 fruit/receive fruit1;
#X obj 495 59 route s;
#X obj 263 31 analog/parse;
#X obj 261 53 route 0 1;
#X floatatom 265 94 5 0 0 0 - - -, f 5;
#X floatatom 325 88 5 0 0 0 - - -, f 5;
#X obj 495 84 route 0 1 2 3 4 5;
#X floatatom 594 150 8 0 0 0 - - -, f 8;
#X floatatom 613 124 8 0 0 0 - - -, f 8;
#X obj 253 160 s VOLUME;
#X obj 314 162 s TEMPO;
#X obj 253 138 clip 0 1;
#X obj 314 142 clip 0 1;
#X obj 373 142 hsl 128 15 0 1 0 0 empty empty empty -2 -8 0 10 -262144
-1 -1 0 1;
#X obj 307 102 hsl 128 15 0 1 0 0 empty empty empty -2 -8 0 10 -262144
-1 -1 0 1;
#X obj 253 116 / 4096;
#X obj 314 120 / 4096;
#X msg 459 216 1 \$1;
#X msg 500 216 2 \$1;
#X msg 535 217 3 \$1;
#X msg 356 325 4 \$1;
#X msg 396 325 5 \$1;
#X msg 437 325 6 \$1;
#X msg 581 215 1 \$1;
#X msg 621 215 2 \$1;
#X msg 657 216 3 \$1;
#X msg 483 329 4 \$1;
#X msg 523 329 5 \$1;
#X msg 564 329 6 \$1;
#X obj 438 363 list prepend 1;
#X obj 572 364 list prepend 2;
#X obj 438 385 s BOUTONS;
#X obj 144 485 *;
#X obj 90 530 &;
#X floatatom 37 537 5 0 0 0 - - -, f 5;
#X msg 90 486 255 \$1;
#X obj 154 308 tgl 15 0 empty empty empty 17 7 0 10 -262144 -1 -1 0
1;
#X msg 154 329 1 \$1;
#X obj 201 305 tgl 15 0 empty empty empty 17 7 0 10 -262144 -1 -1 0
1;
#X msg 204 324 5 \$1;
#N canvas 0 79 450 300 toBinary 0;
#X obj 145 20 inlet;
#X obj 145 44 unpack f f;
#X obj 145 243 f;
#X obj 145 109 <<;
#X msg 145 88 1 \$1;
#X obj 145 66 t f f;
#X obj 145 131 t f f;
#X obj 145 177 -;
#X obj 145 221 |;
#X obj 199 154 *;
#X obj 145 199 &;
#X floatatom 92 206 5 0 0 0 - - -, f 5;
#X msg 145 155 255 \$1;
#X obj 145 265 outlet;
#X floatatom 92 253 5 0 0 0 - - -, f 5;
#X connect 0 0 1 0;
#X connect 1 0 5 0;
#X connect 1 1 9 1;
#X connect 2 0 10 1;
#X connect 2 0 13 0;
#X connect 3 0 6 0;
#X connect 4 0 3 0;
#X connect 5 0 4 0;
#X connect 6 0 12 0;
#X connect 6 1 9 0;
#X connect 7 0 10 0;
#X connect 7 0 11 0;
#X connect 8 0 2 0;
#X connect 9 0 8 1;
#X connect 10 0 8 0;
#X connect 12 0 7 0;
#X restore 297 557 pd toBinary;
#X obj 248 367 r LEDS;
#X obj 248 415 route 1 2 3 4 5 6;
#X obj 228 498 tgl 15 0 empty empty empty 17 7 0 10 -262144 -1 -1 0
1;
#X obj 264 502 tgl 15 0 empty empty empty 17 7 0 10 -262144 -1 -1 0
1;
#X obj 303 504 tgl 15 0 empty empty empty 17 7 0 10 -262144 -1 -1 0
1;
#X obj 341 503 tgl 15 0 empty empty empty 17 7 0 10 -262144 -1 -1 0
1;
#X obj 378 504 tgl 15 0 empty empty empty 17 7 0 10 -262144 -1 -1 0
1;
#X obj 413 503 tgl 15 0 empty empty empty 17 7 0 10 -262144 -1 -1 0
1;
#X msg 265 523 1 \$1;
#X msg 302 523 2 \$1;
#X msg 340 523 3 \$1;
#X msg 377 523 4 \$1;
#X msg 228 523 0 \$1;
#X msg 414 522 5 \$1;
#N canvas 0 79 450 300 toBinary 0;
#X obj 145 20 inlet;
#X obj 145 44 unpack f f;
#X obj 145 243 f;
#X obj 145 109 <<;
#X msg 145 88 1 \$1;
#X obj 145 66 t f f;
#X obj 145 131 t f f;
#X obj 145 177 -;
#X obj 145 221 |;
#X obj 199 154 *;
#X obj 145 199 &;
#X floatatom 92 206 5 0 0 0 - - -, f 5;
#X msg 145 155 255 \$1;
#X obj 145 265 outlet;
#X connect 0 0 1 0;
#X connect 1 0 5 0;
#X connect 1 1 9 1;
#X connect 2 0 10 1;
#X connect 2 0 13 0;
#X connect 3 0 6 0;
#X connect 4 0 3 0;
#X connect 5 0 4 0;
#X connect 6 0 12 0;
#X connect 6 1 9 0;
#X connect 7 0 10 0;
#X connect 7 0 11 0;
#X connect 8 0 2 0;
#X connect 9 0 8 1;
#X connect 10 0 8 0;
#X connect 12 0 7 0;
#X restore 528 553 pd toBinary;
#X msg 496 519 1 \$1;
#X msg 533 519 2 \$1;
#X msg 571 519 3 \$1;
#X msg 608 519 4 \$1;
#X msg 459 519 0 \$1;
#X msg 645 518 5 \$1;
#X obj 459 500 tgl 15 0 empty empty empty 17 7 0 10 -262144 -1 -1 0
1;
#X obj 496 500 tgl 15 0 empty empty empty 17 7 0 10 -262144 -1 -1 0
1;
#X obj 533 501 tgl 15 0 empty empty empty 17 7 0 10 -262144 -1 -1 0
1;
#X obj 571 501 tgl 15 0 empty empty empty 17 7 0 10 -262144 -1 -1 0
1;
#X obj 608 502 tgl 15 0 empty empty empty 17 7 0 10 -262144 -1 -1 0
1;
#X obj 643 501 tgl 15 0 empty empty empty 17 7 0 10 -262144 -1 -1 0
1;
#X obj 295 619 fruit/send2 fruit1;
#X obj 497 620 fruit/send2 fruit2;
#X floatatom 248 587 5 0 0 0 - - -, f 5;
#X obj 183 557 tgl 15 0 empty empty empty 17 7 0 10 -262144 -1 -1 0
1;
#X obj 248 389 route 1 2;
#X obj 377 416 route 1 2 3 4 5 6;
#X obj 601 410 r BOUTONS;
#X obj 601 432 s LEDS;
#X connect 4 0 9 0;
#X connect 5 0 6 0;
#X connect 5 1 4 0;
#X connect 6 0 7 0;
#X connect 9 0 0 0;
#X connect 9 0 64 0;
#X connect 9 1 1 0;
#X connect 9 1 70 0;
#X connect 9 2 2 0;
#X connect 9 2 65 0;
#X connect 9 3 3 0;
#X connect 9 3 71 0;
#X connect 9 4 10 0;
#X connect 9 4 66 0;
#X connect 9 5 11 0;
#X connect 9 5 72 0;
#X connect 14 0 15 0;
#X connect 15 0 12 0;
#X connect 16 0 17 0;
#X connect 17 0 13 0;
#X connect 18 0 13 0;
#X connect 19 0 12 0;
#X connect 20 0 5 0;
#X connect 21 0 25 0;
#X connect 21 1 76 1;
#X connect 22 0 29 0;
#X connect 22 0 77 1;
#X connect 23 0 26 0;
#X connect 24 0 23 0;
#X connect 25 0 24 0;
#X connect 26 0 79 0;
#X connect 26 1 76 0;
#X connect 27 0 77 0;
#X connect 27 0 78 0;
#X connect 28 0 22 0;
#X connect 30 0 31 0;
#X connect 31 0 21 0;
#X connect 32 0 113 1;
#X connect 33 0 32 0;
#X connect 33 0 35 0;
#X connect 34 0 112 1;
#X connect 35 0 34 0;
#X connect 36 0 37 0;
#X connect 37 0 33 0;
#X connect 38 0 112 0;
#X connect 39 0 113 0;
#X connect 44 0 46 0;
#X connect 45 0 50 0;
#X connect 46 0 47 0;
#X connect 46 1 45 0;
#X connect 47 0 48 0;
#X connect 47 0 59 0;
#X connect 47 1 49 0;
#X connect 47 1 60 0;
#X connect 50 0 40 0;
#X connect 50 0 61 0;
#X connect 50 1 41 0;
#X connect 50 1 62 0;
#X connect 50 2 42 0;
#X connect 50 2 67 0;
#X connect 50 3 43 0;
#X connect 50 3 68 0;
#X connect 50 4 51 0;
#X connect 50 4 63 0;
#X connect 50 5 52 0;
#X connect 50 5 69 0;
#X connect 55 0 53 0;
#X connect 56 0 54 0;
#X connect 57 0 54 0;
#X connect 58 0 53 0;
#X connect 59 0 55 0;
#X connect 60 0 56 0;
#X connect 61 0 73 0;
#X connect 62 0 73 0;
#X connect 63 0 73 0;
#X connect 64 0 73 0;
#X connect 65 0 73 0;
#X connect 66 0 73 0;
#X connect 67 0 74 0;
#X connect 68 0 74 0;
#X connect 69 0 74 0;
#X connect 70 0 74 0;
#X connect 71 0 74 0;
#X connect 72 0 74 0;
#X connect 73 0 75 0;
#X connect 74 0 75 0;
#X connect 76 0 28 1;
#X connect 77 0 28 0;
#X connect 79 0 27 0;
#X connect 80 0 81 0;
#X connect 81 0 21 0;
#X connect 82 0 83 0;
#X connect 83 0 21 0;
#X connect 84 0 38 0;
#X connect 85 0 116 0;
#X connect 86 0 87 0;
#X connect 86 1 89 0;
#X connect 86 2 91 0;
#X connect 86 3 106 0;
#X connect 86 4 108 0;
#X connect 86 5 110 0;
#X connect 87 0 97 0;
#X connect 88 0 93 0;
#X connect 89 0 94 0;
#X connect 90 0 95 0;
#X connect 91 0 96 0;
#X connect 92 0 98 0;
#X connect 93 0 84 0;
#X connect 94 0 84 0;
#X connect 95 0 84 0;
#X connect 96 0 84 0;
#X connect 97 0 84 0;
#X connect 98 0 84 0;
#X connect 99 0 39 0;
#X connect 100 0 99 0;
#X connect 101 0 99 0;
#X connect 102 0 99 0;
#X connect 103 0 99 0;
#X connect 104 0 99 0;
#X connect 105 0 99 0;
#X connect 106 0 104 0;
#X connect 107 0 100 0;
#X connect 108 0 101 0;
#X connect 109 0 102 0;
#X connect 110 0 103 0;
#X connect 111 0 105 0;
#X connect 115 0 38 0;
#X connect 116 0 86 0;
#X connect 116 1 117 0;
#X connect 117 0 88 0;
#X connect 117 1 90 0;
#X connect 117 2 92 0;
#X connect 117 3 107 0;
#X connect 117 4 109 0;
#X connect 117 5 111 0;
#X restore 199 268 pd buttons;
#X text 389 389 notes;
#X text 389 407 decoup;
#X text 391 426 electro;
#X text 387 356 rythme;
#X obj 658 214 loadbang;
#X msg 658 236 \; pd dsp 1;
#X text 387 331 song;
#X text 389 372 prose;
#X obj 454 434 Kick 1;
#X obj 514 433 Snare 2;
#N canvas 24 610 297 262 NOTES-tables 0;
#X obj 60 40 notebank 1 5;
#X obj 61 64 notebank 2 31;
#X obj 63 87 notebank 3 9;
#X obj 63 109 notebank 4 24;
#X obj 63 131 notebank 5 26;
#X obj 63 153 notebank 6 12;
#X obj 63 175 notebank 7 5;
#X obj 63 197 notebank 8 7;
#X restore 591 390 pd NOTES-tables;
#X obj 506 371 Prose 2;
#X obj 451 326 Chanson;
#X obj 531 320 text define -k zulma;
#A set 1 0 0 0 0 0 0 0 0 \; 2 0 0 0 5 5 5 5 0 \; 3 0 0 0 4 4 5 5 0
\; 4 0 0 0 0 5 5 5 5 \; 5 0 0 0 0 4 4 5 5 \; 6 0 0 0 0 4 5 5 5 \; 7
0 0 0 0 4 4 5 5 \; 8 0 0 0 0 4 4 5 5 \; 9 0 0 5 5 0 0 4 5 \; 10 0 0
0 0 0 5 5 5 \; 11 0 0 0 0 0 4 4 5 \; 12 5 0 0 0 0 0 5 5 \; 13 5 5 0
0 0 0 4 4 \; 14 5 5 0 0 0 0 4 5 \; 15 5 5 0 0 0 0 4 4 \; 16 2 2 5 5
5 5 0 0 \; 17 4 5 0 0 0 0 0 5 \; 18 5 5 5 0 0 0 0 4 \; 19 4 5 5 0 0
0 0 0 \; 20 5 5 5 5 0 0 0 0 \; 21 4 4 5 5 0 0 0 0 \; 22 4 5 5 5 0 0
0 0 \; 23 4 4 5 5 0 0 0 0 \; 24 6 6 2 2 5 5 5 5 \; 25 5 5 4 5 0 0 0
0 \; 26 0 5 5 5 5 0 0 0 \; 27 5 4 4 5 5 0 0 0 \; 28 0 0 5 5 5 5 0 0
\; 29 0 0 4 4 5 5 0 0 \; 30 0 0 4 5 5 5 0 0 \; 31 0 0 4 4 5 5 0 0 \;
32 0 0 4 4 5 5 0 0 \; 33 5 5 0 0 4 5 0 0 \; 34 0 0 0 5 5 5 5 0 \; 35
0 0 0 4 4 5 5 0 \; 36 0 0 0 0 5 5 5 5 \; 37 0 0 0 0 4 4 5 5 \; 38 0
0 4 5 5 5 0 0 \; 39 0 0 4 4 5 5 0 0 \; 40 0 0 4 4 5 5 0 0 \; 41 5 5
0 0 4 4 4 5 \;;
#X text 680 321 accords;
#X obj 451 346 Rythme 1;
#N canvas 905 551 450 300 BOUCLES-tables 0;
#X obj 66 50 soundbank BOUCLES 1 23;
#X obj 66 136 soundbank BOUCLES 5 41;
#X obj 66 68 soundbank BOUCLES 2 16;
#X obj 66 86 soundbank BOUCLES 3 23;
#X obj 66 104 soundbank BOUCLES 4 28;
#X restore 591 414 pd BOUCLES-tables;
#X obj 309 268 s LOADTABLES;
#X obj 308 250 bng 15 250 50 0 empty empty empty 17 7 0 10 -262144
-1 -1;
#X obj 308 229 del 100;
#X obj 26 21 loadbang;
#X msg 26 43 0;
#X msg 66 65 1;
#X obj 66 43 del 4000;
#X obj 505 392 NOTE 2;
#X obj 453 412 Orgue 1;
#X obj 519 412 Basse 2;
#X obj 516 346 Rythme 2;
#X obj 218 69 declare -stdpath iemlib -lib iemlib1 -stdpath creb -lib
creb;
#X obj 451 370 Prose 1;
#X obj 453 392 NOTE 1;
#X connect 2 0 3 0;
#X connect 3 0 5 0;
#X connect 5 0 6 0;
#X connect 7 0 2 0;
#X connect 8 0 14 0;
#X connect 8 0 42 0;
#X connect 9 0 14 0;
#X connect 10 0 6 0;
#X connect 14 0 10 0;
#X connect 16 0 17 0;
#X connect 27 0 28 0;
#X connect 41 0 40 0;
#X connect 42 0 41 0;
#X connect 43 0 44 0;
#X connect 43 0 46 0;
#X connect 44 0 12 0;
#X connect 45 0 12 0;
#X connect 46 0 45 0;
