#N canvas 4 76 680 573 10;
#X obj 46 102 * 256;
#X obj 25 124 +;
#X obj 114 102 * 256;
#X obj 96 124 +;
#X obj 185 102 * 256;
#X obj 167 124 +;
#X obj 25 154 + 32768;
#X obj 25 176 mod 65536;
#X obj 25 198 - 32768;
#X obj 25 220 / 32768;
#X obj 96 145 + 32768;
#X obj 96 167 mod 65536;
#X obj 96 189 - 32768;
#X obj 96 211 / 32768;
#X obj 167 145 + 32768;
#X obj 167 167 mod 65536;
#X obj 167 189 - 32768;
#X obj 167 211 / 32768;
#X obj 167 233 * 130;
#X obj 96 233 * 116;
#X obj 25 242 * 116;
#X obj 25 77 unpack f f f f f f;
#X obj 25 264 pack f f f;
#X obj 25 311 unpack f f f;
#X obj 25 332 t f f;
#X obj 57 401 -;
#X obj 25 377 t f f;
#X obj 57 423 * -1;
#X obj 86 333 t f f;
#X obj 118 402 -;
#X obj 86 378 t f f;
#X obj 118 424 * -1;
#X obj 151 335 t f f;
#X obj 183 404 -;
#X obj 151 380 t f f;
#X obj 183 426 * -1;
#X obj 25 470 pack f f f;
#X obj 108 470 pack f f f;
#X obj 25 286 t a a;
#X obj 25 32 inlet;
#X obj 25 493 s AXLSLOW\$1;
#X obj 108 493 s AXLFAST\$1;
#X obj 280 321 s AXLRAW\$1;
#X obj 305 177 r AXL_SEPARATION;
#X floatatom 130 34 5 0 0 0 - - -, f 5;
#X floatatom 12 524 5 0 0 0 - - -, f 5;
#X floatatom 158 530 5 0 0 0 - - -, f 5;
#X floatatom 246 529 5 0 0 0 - - -, f 5;
#X obj 25 355 mavg 20;
#X obj 86 356 mavg 20;
#X obj 151 358 mavg 20;
#X obj 477 214 r AXLSLOW\$1;
#X obj 477 236 unpack f f f;
#X obj 477 268 atan2;
#X obj 529 269 atan2;
#X obj 477 290 / 1.57;
#X obj 529 291 / 1.57;
#X obj 477 312 pack f f;
#X obj 477 336 s ASSIETTE\$1;
#X connect 0 0 1 1;
#X connect 1 0 6 0;
#X connect 2 0 3 1;
#X connect 3 0 10 0;
#X connect 4 0 5 1;
#X connect 5 0 14 0;
#X connect 6 0 7 0;
#X connect 7 0 8 0;
#X connect 8 0 9 0;
#X connect 9 0 20 0;
#X connect 10 0 11 0;
#X connect 11 0 12 0;
#X connect 12 0 13 0;
#X connect 13 0 19 0;
#X connect 14 0 15 0;
#X connect 15 0 16 0;
#X connect 16 0 17 0;
#X connect 17 0 18 0;
#X connect 18 0 22 2;
#X connect 19 0 22 1;
#X connect 20 0 22 0;
#X connect 21 0 1 0;
#X connect 21 1 0 0;
#X connect 21 1 44 0;
#X connect 21 2 3 0;
#X connect 21 3 2 0;
#X connect 21 4 5 0;
#X connect 21 5 4 0;
#X connect 22 0 38 0;
#X connect 23 0 24 0;
#X connect 23 1 28 0;
#X connect 23 2 32 0;
#X connect 24 0 48 0;
#X connect 24 1 25 1;
#X connect 25 0 27 0;
#X connect 26 0 36 0;
#X connect 26 1 25 0;
#X connect 27 0 37 0;
#X connect 28 0 49 0;
#X connect 28 1 29 1;
#X connect 29 0 31 0;
#X connect 30 0 36 1;
#X connect 30 1 29 0;
#X connect 31 0 37 1;
#X connect 32 0 50 0;
#X connect 32 1 33 1;
#X connect 33 0 35 0;
#X connect 34 0 36 2;
#X connect 34 1 33 0;
#X connect 35 0 37 2;
#X connect 36 0 40 0;
#X connect 37 0 41 0;
#X connect 38 0 23 0;
#X connect 38 1 42 0;
#X connect 39 0 21 0;
#X connect 43 0 48 1;
#X connect 43 0 49 1;
#X connect 43 0 50 1;
#X connect 48 0 26 0;
#X connect 48 0 45 0;
#X connect 49 0 30 0;
#X connect 50 0 34 0;
#X connect 51 0 52 0;
#X connect 52 0 53 0;
#X connect 52 1 54 0;
#X connect 52 2 53 1;
#X connect 52 2 54 1;
#X connect 53 0 55 0;
#X connect 54 0 56 0;
#X connect 55 0 57 0;
#X connect 56 0 57 1;
#X connect 57 0 58 0;
