#N canvas 391 122 674 532 10;
#X obj 37 495 out~;
#X obj 40 106 mtof;
#X obj 393 309 pow 2;
#X obj 396 286 hsl 128 15 0 1 0 1 empty empty empty -2 -8 0 10 -262144
-1 -1 7400 1;
#X obj 40 23 + 0;
#X obj 40 83 +;
#X floatatom 299 59 5 0 0 0 - - -, f 5;
#X obj 68 81 t b f;
#X obj 42 431 *~;
#X obj 300 34 r TRANSPOSE_OFFSET;
#X obj 40 129 +~;
#X obj 42 388 bob~;
#X obj 183 307 mtof;
#X obj 186 220 hsl 128 15 0 1 0 0 empty empty empty -2 -8 0 10 -262144
-1 -1 12666 1;
#X msg 183 328 \$1 50;
#X obj 183 350 line~;
#X obj 349 124 boutonled \$1 5;
#X obj 349 310 line~;
#X msg 349 288 \$1 2;
#X obj 349 332 *~;
#X obj 313 126 f;
#X obj 444 150 unpack f f;
#X obj 444 173 abs;
#X obj 42 411 lop~ 3000;
#X obj 547 319 line~;
#X msg 547 297 \$1 1200;
#X obj 41 363 hip~ 20;
#X obj 41 330 blosc~ comparator;
#X obj 41 216 phasor~;
#X obj 41 300 -~;
#X floatatom 98 168 5 0 0 0 - - -, f 5;
#X floatatom 174 188 5 0 0 0 - - -, f 5;
#X obj 177 166 hsl 50 15 0 0.99 0 0 empty empty empty -2 -6 0 8 -262144
-1 -1 0 1;
#X text 218 188 depth;
#X obj 101 147 hsl 50 15 0.1 10 1 0 empty empty empty -2 -6 0 8 -262144
-1 -1 0 1;
#X text 156 146 mod freq;
#X obj 41 241 *~ 2;
#X obj 41 266 -~ 1;
#X obj 40 44 gammeRound g2 50;
#X obj 533 134 clip 20 70;
#X obj 183 263 + 25;
#X obj 534 112 + 40;
#X obj 99 236 +~ 0.1;
#X obj 444 195 * 1;
#X obj 444 217 + 0;
#X obj 183 285 clip 10 100;
#X obj 183 241 * 100;
#X obj 467 36 unpack f f;
#X obj 548 340 osc~ 3;
#X obj 534 62 mavg 10;
#X obj 548 363 *~ 2;
#X obj 547 270 + 3;
#X obj 547 250 * 1;
#X obj 85 388 sig~ 1;
#X obj 534 89 * 14;
#X obj 99 214 *~ 0.6;
#X obj 98 190 osc~ 0.37;
#X connect 1 0 10 0;
#X connect 2 0 19 1;
#X connect 3 0 2 0;
#X connect 4 0 38 0;
#X connect 5 0 1 0;
#X connect 6 0 7 0;
#X connect 7 0 5 0;
#X connect 7 1 5 1;
#X connect 8 0 0 0;
#X connect 8 0 0 1;
#X connect 9 0 6 0;
#X connect 10 0 28 0;
#X connect 11 0 23 0;
#X connect 12 0 14 0;
#X connect 13 0 46 0;
#X connect 14 0 15 0;
#X connect 15 0 11 1;
#X connect 16 0 18 0;
#X connect 16 0 20 0;
#X connect 16 1 47 0;
#X connect 16 4 21 0;
#X connect 17 0 19 0;
#X connect 18 0 17 0;
#X connect 19 0 8 1;
#X connect 20 0 16 0;
#X connect 21 0 22 0;
#X connect 21 1 52 0;
#X connect 22 0 43 0;
#X connect 23 0 8 0;
#X connect 24 0 48 0;
#X connect 25 0 24 0;
#X connect 26 0 11 0;
#X connect 27 0 26 0;
#X connect 28 0 36 0;
#X connect 29 0 27 0;
#X connect 30 0 56 0;
#X connect 31 0 55 1;
#X connect 32 0 31 0;
#X connect 34 0 30 0;
#X connect 36 0 37 0;
#X connect 37 0 29 0;
#X connect 38 0 5 0;
#X connect 39 0 4 0;
#X connect 40 0 45 0;
#X connect 41 0 39 0;
#X connect 42 0 29 1;
#X connect 43 0 44 0;
#X connect 44 0 46 0;
#X connect 45 0 12 0;
#X connect 46 0 40 0;
#X connect 47 1 49 0;
#X connect 48 0 50 0;
#X connect 49 0 54 0;
#X connect 51 0 25 0;
#X connect 52 0 51 0;
#X connect 53 0 11 2;
#X connect 54 0 41 0;
#X connect 55 0 42 0;
#X connect 56 0 55 0;
