#N canvas 6 121 754 324 10;
#X obj 49 132 r BOUTONS;
#X obj 49 154 route \$1;
#X obj 49 199 tgl 15 0 empty empty empty 17 7 0 10 -262144 -1 -1 0
1;
#X obj 53 81 s LEDS;
#X obj 53 38 tgl 15 0 empty empty empty 17 7 0 10 -262144 -1 -1 0 1
;
#X obj 49 176 route \$2;
#X obj 53 59 list prepend \$1 \$2;
#X obj 49 246 outlet;
#X obj 53 18 inlet;
#X obj 259 212 spigot;
#X obj 259 127 r AXLRAW\$1;
#X obj 259 154 t l l;
#X obj 270 186 list;
#X obj 217 128 t f f;
#X obj 217 150 sel 1;
#X obj 259 233 outlet;
#X obj 387 211 spigot;
#X obj 387 153 t l l;
#X obj 398 185 list;
#X obj 345 127 t f f;
#X obj 345 149 sel 1;
#X obj 387 232 outlet;
#X obj 103 246 s \$0-on;
#X obj 217 97 r \$0-on;
#X obj 345 100 r \$0-on;
#X obj 387 126 r AXLSLOW\$1;
#X obj 521 203 spigot;
#X obj 521 145 t l l;
#X obj 532 177 list;
#X obj 479 119 t f f;
#X obj 479 141 sel 1;
#X obj 521 224 outlet;
#X obj 479 92 r \$0-on;
#X obj 521 118 r AXLFAST\$1;
#X obj 660 200 spigot;
#X obj 660 142 t l l;
#X obj 671 174 list;
#X obj 618 116 t f f;
#X obj 618 138 sel 1;
#X obj 660 221 outlet;
#X obj 618 89 r \$0-on;
#X obj 49 219 t f f;
#X obj 660 115 r ASSIETTE\$1;
#X connect 0 0 1 0;
#X connect 1 0 5 0;
#X connect 2 0 41 0;
#X connect 4 0 6 0;
#X connect 5 0 2 0;
#X connect 6 0 3 0;
#X connect 8 0 4 0;
#X connect 9 0 15 0;
#X connect 10 0 11 0;
#X connect 11 0 9 0;
#X connect 11 1 12 1;
#X connect 12 0 9 0;
#X connect 13 0 14 0;
#X connect 13 1 9 1;
#X connect 14 0 12 0;
#X connect 16 0 21 0;
#X connect 17 0 16 0;
#X connect 17 1 18 1;
#X connect 18 0 16 0;
#X connect 19 0 20 0;
#X connect 19 1 16 1;
#X connect 20 0 18 0;
#X connect 23 0 13 0;
#X connect 24 0 19 0;
#X connect 25 0 17 0;
#X connect 26 0 31 0;
#X connect 27 0 26 0;
#X connect 27 1 28 1;
#X connect 28 0 26 0;
#X connect 29 0 30 0;
#X connect 29 1 26 1;
#X connect 30 0 28 0;
#X connect 32 0 29 0;
#X connect 33 0 27 0;
#X connect 34 0 39 0;
#X connect 35 0 34 0;
#X connect 35 1 36 1;
#X connect 36 0 34 0;
#X connect 37 0 38 0;
#X connect 37 1 34 1;
#X connect 38 0 36 0;
#X connect 40 0 37 0;
#X connect 41 0 7 0;
#X connect 41 1 22 0;
#X connect 42 0 35 0;
