#N canvas 223 110 908 752 10;
#X declare -stdpath iemlib -lib iemlib1;
#X floatatom 729 393 5 0 0 0 - - -, f 5;
#X obj 729 370 + 1;
#X obj 668 483 s \$0-t-len;
#X obj 265 355 r \$0-t-len;
#X obj 100 160 r CLOCK;
#X obj 208 443 *;
#X obj 208 494 pack f f f;
#X obj 236 443 + 1;
#X obj 236 463 *;
#X msg 208 516 \$1 \, \$2 \$3;
#X obj 208 538 line~;
#X obj 210 653 *~;
#X obj 381 425 hsl 128 15 0 1 0 1 empty empty empty -2 -8 0 10 -262144
-1 -1 9100 1;
#X obj 378 494 pow 2;
#X obj 378 586 line~;
#X floatatom 328 408 8 0 0 0 - - -, f 8;
#X obj 272 469 / 48;
#X obj 100 301 / 1;
#X obj 265 381 / 32;
#X obj 294 441 t b f;
#X floatatom 291 419 5 0 0 0 - - -, f 5;
#X floatatom 108 480 5 0 0 0 - - -, f 5;
#N canvas 592 74 770 689 ACCORDS-ZULMA 0;
#X obj 89 279 GAMMEKB g1;
#X obj 269 294 s g1;
#X msg 261 257 0;
#X msg 304 254 1;
#X obj 193 283 r g1;
#X floatatom 193 305 5 0 0 0 - - -, f 5;
#X msg 381 253 2741;
#X obj 412 120 loadbang;
#X obj 412 144 del 100;
#X obj 95 356 GAMMEKB g2;
#X obj 269 378 s g2;
#X msg 269 354 145;
#X obj 110 601 ssaw~;
#X obj 110 623 lop~;
#X obj 110 573 mtof;
#X obj 151 602 * 2;
#X obj 216 603 ssaw~;
#X obj 216 625 lop~;
#X obj 216 575 mtof;
#X obj 257 604 * 2;
#X obj 320 603 ssaw~;
#X obj 320 625 lop~;
#X obj 320 575 mtof;
#X obj 361 604 * 2;
#X obj 426 604 ssaw~;
#X obj 426 626 lop~;
#X obj 426 576 mtof;
#X obj 467 605 * 2;
#X obj 521 268 bng 15 250 50 0 empty empty empty 17 7 0 10 -262144
-1 -1;
#X obj 279 701 pow 2;
#X obj 344 673 hsl 128 15 0 1 0 1 empty empty empty -2 -8 0 10 -262144
-1 -1 4300 1;
#X obj 111 505 gammeRound g2 50;
#X obj 216 505 gammeRound g2 50;
#X obj 321 507 gammeRound g2 50;
#X obj 427 508 gammeRound g2 50;
#X floatatom 594 541 5 0 0 0 - - -, f 5;
#X obj 111 484 + 0;
#X obj 428 485 + 7;
#X obj 111 544 +;
#X obj 217 545 +;
#X obj 321 546 +;
#X obj 427 547 +;
#X floatatom 504 415 5 0 0 0 - - -, f 5;
#X obj 139 542 t b f;
#X obj 248 547 t b f;
#X obj 346 550 t b f;
#X obj 453 547 t b f;
#X floatatom 272 419 5 0 0 0 - - -, f 5;
#X floatatom 209 381 5 0 0 0 - - -, f 5;
#X obj 209 359 r g2;
#X msg 338 352 545;
#X msg 371 351 2180;
#X msg 298 351 580;
#X obj 216 481 + 3.9;
#X obj 319 482 + 4.9;
#X msg 372 414 60.13;
#X obj 594 178 text get zulma;
#X floatatom 592 118 5 0 0 0 - - -, f 5;
#X obj 607 290 list split;
#X obj 607 266 list;
#X obj 637 236 t b f;
#X obj 635 314 list split 1;
#X floatatom 635 348 5 0 0 0 - - -, f 5;
#X floatatom 689 208 5 0 0 0 - - -, f 5;
#X obj 360 122 inlet;
#X floatatom 48 581 5 0 0 0 - - -, f 5;
#X obj 242 733 *~;
#X obj 228 701 hip~ 50;
#X obj 362 309 sel 0 2 4 5 6;
#X msg 410 355 529;
#X msg 340 254 2774;
#X obj 340 226 sel 2;
#X obj 360 148 f;
#X msg 412 166 0;
#X msg 42 25 write zulma_bak.txt;
#X obj 625 455 switch~;
#X obj 625 432 tgl 15 0 empty empty empty 17 7 0 10 -262144 -1 -1 0
1;
#X obj 505 390 r TRANSPOSE_OFFSET;
#X obj 382 387 loadbang;
#X obj 518 326 loadbang;
#X obj 519 368 s TRANSPOSE_OFFSET;
#X msg 518 348 -5;
#X obj 231 760 out~;
#X connect 2 0 1 0;
#X connect 3 0 1 0;
#X connect 4 0 5 0;
#X connect 6 0 1 0;
#X connect 7 0 8 0;
#X connect 8 0 73 0;
#X connect 11 0 10 0;
#X connect 12 0 13 0;
#X connect 13 0 67 0;
#X connect 14 0 15 0;
#X connect 14 0 12 0;
#X connect 15 0 13 1;
#X connect 16 0 17 0;
#X connect 17 0 67 0;
#X connect 18 0 19 0;
#X connect 18 0 16 0;
#X connect 19 0 17 1;
#X connect 20 0 21 0;
#X connect 21 0 67 0;
#X connect 22 0 23 0;
#X connect 22 0 20 0;
#X connect 23 0 21 1;
#X connect 24 0 25 0;
#X connect 25 0 67 0;
#X connect 26 0 27 0;
#X connect 26 0 24 0;
#X connect 27 0 25 1;
#X connect 29 0 66 1;
#X connect 30 0 29 0;
#X connect 31 0 38 0;
#X connect 32 0 39 0;
#X connect 33 0 40 0;
#X connect 34 0 35 0;
#X connect 34 0 41 0;
#X connect 36 0 31 0;
#X connect 37 0 34 0;
#X connect 38 0 14 0;
#X connect 38 0 65 0;
#X connect 39 0 18 0;
#X connect 40 0 22 0;
#X connect 41 0 26 0;
#X connect 42 0 46 0;
#X connect 42 0 45 0;
#X connect 42 0 44 0;
#X connect 42 0 43 0;
#X connect 43 0 38 0;
#X connect 43 1 38 1;
#X connect 44 0 39 0;
#X connect 44 1 39 1;
#X connect 45 0 40 0;
#X connect 45 1 40 1;
#X connect 46 0 41 0;
#X connect 46 1 41 1;
#X connect 47 0 36 0;
#X connect 47 0 37 0;
#X connect 47 0 53 0;
#X connect 47 0 54 0;
#X connect 49 0 48 0;
#X connect 50 0 10 0;
#X connect 51 0 10 0;
#X connect 52 0 10 0;
#X connect 53 0 32 0;
#X connect 54 0 33 0;
#X connect 55 0 47 0;
#X connect 56 0 59 1;
#X connect 57 0 56 0;
#X connect 58 1 61 0;
#X connect 59 0 58 0;
#X connect 60 0 59 0;
#X connect 60 1 58 1;
#X connect 61 0 62 0;
#X connect 63 0 60 0;
#X connect 64 0 72 0;
#X connect 66 0 82 0;
#X connect 66 0 82 1;
#X connect 67 0 66 0;
#X connect 68 0 11 0;
#X connect 68 1 52 0;
#X connect 68 2 50 0;
#X connect 68 3 51 0;
#X connect 68 4 69 0;
#X connect 69 0 10 0;
#X connect 70 0 1 0;
#X connect 71 0 70 0;
#X connect 71 1 6 0;
#X connect 72 0 71 0;
#X connect 72 0 68 0;
#X connect 73 0 72 0;
#X connect 76 0 75 0;
#X connect 77 0 42 0;
#X connect 78 0 55 0;
#X connect 79 0 81 0;
#X connect 81 0 80 0;
#X restore 86 589 pd ACCORDS-ZULMA;
#N canvas 796 216 593 489 get_chord 0;
#X obj 203 227 text get zulma;
#X floatatom 339 127 5 0 0 0 - - -, f 5;
#X obj 151 275 list split;
#X obj 151 251 list;
#X obj 151 227 t b f;
#X obj 179 299 list split 1;
#X floatatom 179 333 5 0 0 0 - - -, f 5;
#X floatatom 151 204 5 0 0 0 - - -, f 5;
#X obj 203 178 inlet mesure;
#X obj 151 117 inlet step;
#X obj 151 367 outlet;
#X msg 256 196 1;
#X obj 203 200 - 1;
#X obj 151 139 + 1;
#X connect 0 0 3 1;
#X connect 1 0 0 0;
#X connect 2 1 5 0;
#X connect 3 0 2 0;
#X connect 4 0 3 0;
#X connect 4 1 2 1;
#X connect 5 0 6 0;
#X connect 5 0 10 0;
#X connect 7 0 4 0;
#X connect 8 0 12 0;
#X connect 9 0 13 0;
#X connect 11 0 0 0;
#X connect 12 0 0 0;
#X connect 13 0 7 0;
#X restore 100 551 pd get_chord;
#X floatatom 36 574 5 0 0 0 - - -, f 5;
#X obj 415 298 tgl 15 0 empty empty empty 17 7 0 10 -262144 -1 -1 0
1;
#X obj 378 470 *;
#X obj 409 470 t b f;
#X obj 816 139 clip -1 1;
#X obj 891 138 clip -1 1;
#X obj 816 161 atan2;
#X obj 816 183 sin;
#X obj 776 117 unpack f f f;
#X obj 729 232 + 1;
#X obj 729 254 / 2;
#X obj 729 280 * 40.9;
#X obj 729 302 i;
#X obj 729 345 change;
#X obj 100 204 ndmetro;
#X msg 170 179 nd 32 2;
#X obj 170 157 loadbang;
#X obj 209 689 out~;
#X obj 415 70 boutonled 1 1;
#X obj 648 411 f;
#X obj 517 482 f;
#X obj 517 553 mod 41;
#X obj 517 575 + 1;
#X obj 100 324 t f f f;
#X obj 517 413 div 2;
#X obj 517 435 change;
#X obj 517 457 sel 0;
#X msg 489 209 1;
#X msg 498 243 0;
#X obj 471 270 f;
#X obj 478 179 sel 0 1;
#X obj 440 296 sel 1;
#X obj 415 322 s \$0-on;
#X obj 415 19 r \$0-on;
#X obj 510 104 r \$0-on;
#X obj 415 149 route 0 1;
#X obj 415 171 sel 1;
#X obj 521 208 del 250;
#X obj 415 127 list prepend 0;
#X msg 543 179 stop;
#X obj 448 210 t b b;
#X obj 602 141 sel 1 0;
#X obj 602 182 f;
#X obj 602 204 + 1;
#X obj 633 181 del 250;
#X msg 633 201 0;
#X obj 602 231 sel 2;
#X obj 602 253 del 10;
#X msg 602 274 0;
#X obj 638 283 tgl 15 0 empty empty empty 17 7 0 10 -262144 -1 -1 0
1;
#X obj 638 307 s \$0-loop;
#N canvas 6 74 450 300 clignote-si-loop 0;
#X obj 121 20 inlet;
#X obj 274 20 inlet;
#X obj 121 230 outlet;
#X obj 274 42 t f f;
#X obj 306 106 tgl 15 0 empty empty empty 17 7 0 10 -262144 -1 -1 0
1;
#X obj 306 76 metro 150;
#X obj 259 76 sel 0;
#X msg 259 98 1;
#X obj 136 148 t b f;
#X obj 121 197 change;
#X obj 121 175 * 1;
#X connect 0 0 10 0;
#X connect 1 0 3 0;
#X connect 3 0 6 0;
#X connect 3 1 5 0;
#X connect 4 0 8 0;
#X connect 5 0 4 0;
#X connect 6 0 7 0;
#X connect 7 0 4 0;
#X connect 8 0 10 0;
#X connect 8 1 10 1;
#X connect 9 0 2 0;
#X connect 10 0 9 0;
#X restore 415 46 pd clignote-si-loop;
#X obj 545 18 r \$0-loop;
#X obj 517 526 + 1;
#X obj 517 504 - 1;
#X obj 557 504 r \$0-loop;
#X obj 557 526 == 0;
#X obj 100 456 div 4;
#X obj 668 460 tabread soundlength-BOUCLES/5;
#X obj 668 438 - 1;
#X msg 648 608 set ST-BOUCLES/5-\$1;
#X obj 100 226 t b f;
#X obj 100 248 del 1;
#X obj 100 270 f;
#X msg 378 559 \$1 1;
#X obj 364 537 *;
#X msg 344 480 0;
#X msg 311 481 1;
#X obj 208 560 tabread4~;
#X obj 409 449 r \$0-on;
#X obj 695 69 list;
#X obj 695 92 unpack f f;
#X obj 729 189 f;
#X obj 299 71 boutonled 2 1;
#X obj 415 100 f;
#X obj 696 120 sel 1;
#X obj 729 211 * 2;
#X obj 729 324 clip 0 40;
#N canvas 222 74 546 401 filter 0;
#X obj 103 79 inlet~;
#X obj 104 221 outlet~;
#X obj 322 33 inlet;
#X obj 322 55 unpack f f;
#X obj 315 90 max 0;
#X obj 315 112 * -1;
#X obj 315 134 * 130;
#X obj 315 156 + 130;
#X obj 315 197 mtof;
#X msg 315 219 \$1 50;
#X obj 315 241 line~;
#X obj 394 91 abs;
#X msg 430 290 \$1 50;
#X obj 430 312 line~;
#X floatatom 358 262 8 0 0 0 - - -, f 8;
#X floatatom 256 89 5 0 0 0 - - -, f 5;
#X obj 430 266 clip 0 3.5;
#X obj 430 197 *;
#X floatatom 489 235 5 0 0 0 - - -, f 5;
#X obj 419 148 clip 0 1;
#X obj 419 170 pow 0.2;
#X obj 315 178 clip 50 130;
#X obj 430 244 * 8;
#X obj 38 30 declare -stdpath iemlib -lib iemlib1;
#X obj 103 153 hp4_cheb~ 10 50;
#X floatatom 492 179 5 0 0 0 - - -, f 5;
#X floatatom 264 170 5 0 0 0 - - -, f 5;
#X obj 103 193 bob~;
#X msg 159 269 clear;
#X obj 212 86 * -1;
#X obj 212 107 max 0;
#X obj 218 130 * 130;
#X obj 218 169 mtof;
#X obj 218 150 clip 0 100;
#X msg 218 190 \$1 50;
#X obj 218 212 line;
#X connect 0 0 24 0;
#X connect 2 0 3 0;
#X connect 3 0 4 0;
#X connect 3 0 15 0;
#X connect 3 0 29 0;
#X connect 3 1 11 0;
#X connect 4 0 5 0;
#X connect 4 0 19 0;
#X connect 5 0 6 0;
#X connect 6 0 7 0;
#X connect 7 0 21 0;
#X connect 8 0 9 0;
#X connect 8 0 14 0;
#X connect 9 0 10 0;
#X connect 10 0 27 1;
#X connect 11 0 17 1;
#X connect 12 0 13 0;
#X connect 13 0 27 2;
#X connect 16 0 12 0;
#X connect 17 0 18 0;
#X connect 17 0 22 0;
#X connect 19 0 20 0;
#X connect 20 0 17 0;
#X connect 21 0 8 0;
#X connect 22 0 16 0;
#X connect 24 0 27 0;
#X connect 25 0 22 0;
#X connect 26 0 8 0;
#X connect 27 0 1 0;
#X connect 28 0 27 0;
#X connect 29 0 30 0;
#X connect 30 0 31 0;
#X connect 31 0 33 0;
#X connect 32 0 34 0;
#X connect 33 0 32 0;
#X connect 34 0 35 0;
#X connect 35 0 24 1;
#X restore 209 621 pd filter;
#X obj 208 582 hip~ 5;
#X connect 0 0 43 0;
#X connect 1 0 0 0;
#X connect 3 0 18 0;
#X connect 4 0 38 0;
#X connect 5 0 6 0;
#X connect 6 0 9 0;
#X connect 7 0 8 0;
#X connect 8 0 6 1;
#X connect 9 0 10 0;
#X connect 10 0 92 0;
#X connect 11 0 41 0;
#X connect 11 0 41 1;
#X connect 12 0 26 0;
#X connect 13 0 89 1;
#X connect 14 0 11 1;
#X connect 16 0 6 2;
#X connect 17 0 47 0;
#X connect 18 0 5 1;
#X connect 18 0 8 1;
#X connect 18 0 15 0;
#X connect 18 0 16 0;
#X connect 19 0 16 0;
#X connect 19 1 16 1;
#X connect 20 0 19 0;
#X connect 23 0 24 0;
#X connect 23 0 22 0;
#X connect 25 0 56 0;
#X connect 26 0 13 0;
#X connect 27 0 26 0;
#X connect 27 1 26 1;
#X connect 28 0 30 0;
#X connect 29 0 30 1;
#X connect 30 0 31 0;
#X connect 32 1 28 0;
#X connect 32 2 29 0;
#X connect 33 0 34 0;
#X connect 34 0 35 0;
#X connect 35 0 36 0;
#X connect 36 0 101 0;
#X connect 37 0 1 0;
#X connect 38 0 85 0;
#X connect 39 0 38 0;
#X connect 40 0 39 0;
#X connect 42 0 98 0;
#X connect 42 0 99 0;
#X connect 42 4 94 0;
#X connect 42 4 102 1;
#X connect 43 0 44 1;
#X connect 43 0 23 1;
#X connect 43 0 83 0;
#X connect 43 0 84 0;
#X connect 44 0 78 0;
#X connect 45 0 46 0;
#X connect 46 0 43 0;
#X connect 47 0 5 0;
#X connect 47 0 81 0;
#X connect 47 1 7 0;
#X connect 47 2 48 0;
#X connect 48 0 49 0;
#X connect 49 0 50 0;
#X connect 50 0 44 0;
#X connect 51 0 53 1;
#X connect 52 0 53 1;
#X connect 53 0 55 0;
#X connect 54 0 64 0;
#X connect 54 1 51 0;
#X connect 54 1 61 0;
#X connect 55 0 25 0;
#X connect 57 0 75 0;
#X connect 58 0 62 1;
#X connect 59 0 60 0;
#X connect 59 1 54 0;
#X connect 60 0 25 0;
#X connect 61 0 52 0;
#X connect 62 0 59 0;
#X connect 63 0 61 0;
#X connect 64 0 52 0;
#X connect 64 1 53 0;
#X connect 65 0 66 0;
#X connect 65 0 68 0;
#X connect 65 1 68 0;
#X connect 66 0 67 0;
#X connect 67 0 66 1;
#X connect 67 0 70 0;
#X connect 68 0 69 0;
#X connect 69 0 66 1;
#X connect 70 0 71 0;
#X connect 70 0 73 0;
#X connect 71 0 72 0;
#X connect 72 0 53 1;
#X connect 73 0 74 0;
#X connect 75 0 42 0;
#X connect 75 0 97 0;
#X connect 76 0 75 1;
#X connect 77 0 45 0;
#X connect 78 0 77 0;
#X connect 79 0 80 0;
#X connect 80 0 77 1;
#X connect 81 0 21 0;
#X connect 81 0 23 0;
#X connect 82 0 2 0;
#X connect 83 0 82 0;
#X connect 84 0 92 0;
#X connect 85 0 86 0;
#X connect 85 0 90 0;
#X connect 85 1 87 1;
#X connect 86 0 87 0;
#X connect 86 0 91 0;
#X connect 87 0 17 0;
#X connect 88 0 14 0;
#X connect 89 0 88 0;
#X connect 90 0 89 0;
#X connect 91 0 89 0;
#X connect 92 0 103 0;
#X connect 93 0 27 0;
#X connect 94 0 95 0;
#X connect 95 1 96 1;
#X connect 96 0 100 0;
#X connect 97 0 98 0;
#X connect 98 0 62 0;
#X connect 98 0 65 0;
#X connect 99 0 96 0;
#X connect 100 0 33 0;
#X connect 101 0 37 0;
#X connect 102 0 11 0;
#X connect 103 0 102 0;
