#N canvas 6 74 551 591 10;
#X obj 78 39 r CLOCK;
#X obj 79 61 unpack f;
#X obj 79 173 line~;
#X obj 78 261 osc~;
#X obj 129 254 line~;
#X obj 78 283 *~;
#X obj 76 315 *~;
#X obj 129 328 hsl 128 15 0 1 0 1 empty empty empty -2 -8 0 10 -262144
-1 -1 6100 1;
#X obj 126 347 pow 2;
#X msg 126 369 \$1 10;
#X obj 126 391 line~;
#X obj 64 355 out~;
#X obj 219 67 sel 1;
#X obj 218 88 tgl 15 0 empty empty empty 17 7 0 10 -262144 -1 -1 1
1;
#X obj 79 83 spigot;
#X msg 155 170 0.25;
#X floatatom 141 215 5 0 0 0 - - -, f 5;
#X obj 79 195 pow~ 7;
#X obj 79 238 +~ 30;
#X obj 78 218 *~ 200;
#X msg 79 151 1 \, 0 300;
#X obj 229 38 boutonled \$1 6;
#X connect 0 0 1 0;
#X connect 1 0 14 0;
#X connect 2 0 5 1;
#X connect 2 0 17 0;
#X connect 3 0 5 0;
#X connect 4 0 5 1;
#X connect 5 0 6 0;
#X connect 6 0 11 0;
#X connect 6 0 11 1;
#X connect 7 0 8 0;
#X connect 8 0 9 0;
#X connect 9 0 10 0;
#X connect 10 0 6 1;
#X connect 12 0 13 0;
#X connect 13 0 14 1;
#X connect 13 0 21 0;
#X connect 14 0 20 0;
#X connect 15 0 3 1;
#X connect 16 0 18 1;
#X connect 17 0 19 0;
#X connect 18 0 3 0;
#X connect 19 0 18 0;
#X connect 20 0 2 0;
#X connect 21 0 12 0;
