#N canvas 259 74 1177 793 10;
#X obj 91 319 pack 1 1;
#X floatatom 91 233 5 0 0 0 - - -, f 5;
#X obj 92 177 hradio 15 1 0 31 empty empty empty 0 -8 0 10 -262144
-1 -1 14;
#X obj 91 207 + 1;
#X obj 314 230 hradio 15 1 0 8 empty empty empty 0 -8 0 10 -262144
-1 -1 4;
#X obj 204 252 + 1;
#X obj 136 363 unpack f f;
#X obj 237 376 sel 0;
#X obj 403 697 *~;
#X obj 487 579 hsl 128 15 0 1 0 1 empty empty empty -2 -8 0 10 -262144
-1 -1 7300 1;
#X obj 483 600 pow 2;
#X obj 483 689 line~;
#X obj 402 772 out~;
#X obj 49 572 pack f f;
#X obj 264 398 t f f;
#X obj 264 531 -;
#X obj 264 553 mtof;
#X msg -1 489 1 \$1;
#X obj -1 511 /;
#X obj 49 603 unpack f f;
#X msg 49 739 0 \, \$1 \$2;
#X obj 49 625 t f f;
#X obj 49 716 pack f f;
#X floatatom 223 411 5 0 0 0 - - -, f 5;
#X floatatom -14 545 5 0 0 0 - - -, f 5;
#X floatatom 213 467 5 0 0 0 - - -, f 5;
#X obj 553 445 mtof;
#X msg 556 420 0;
#X floatatom 553 467 5 0 0 0 - - -, f 5;
#X obj 264 575 / 8.175;
#X obj 49 761 line~;
#X obj 639 132 b;
#X obj 76 649 /;
#X obj 346 393 r TRANSPOSE_OFFSET;
#X floatatom 332 376 5 0 0 0 - - -, f 5;
#X obj 639 76 r CLOCK;
#X obj 639 110 ndmetro;
#X msg 717 105 nd 16 4;
#X obj 704 140 bng 15 250 50 0 empty empty empty 17 7 0 10 -262144
-1 -1;
#X msg 165 79 list 5 31 9 24 26 12 5 7;
#X obj 165 103 list split;
#X obj 165 54 t b f;
#X obj 198 124 list split 1;
#X obj 166 32 - 1;
#X obj 95 154 random 2;
#X obj 662 474 boutonled \$1 4;
#X obj 663 498 tgl 15 0 empty empty empty 17 7 0 10 -262144 -1 -1 0
1;
#X obj 747 686 bng 15 250 50 0 empty empty empty 17 7 0 10 -262144
-1 -1;
#X obj 676 576 unpack f f f;
#X obj 773 632 abs;
#X obj 773 676 - 35;
#X obj 773 654 * 50;
#N canvas 0 79 450 300 length 0;
#X obj 156 25 inlet;
#X obj 156 47 unpack f f f;
#X obj 156 69 pow 2;
#X obj 156 91 +;
#X obj 198 69 pow 2;
#X obj 198 91 +;
#X obj 242 70 pow 2;
#X obj 156 113 sqrt;
#X obj 156 135 outlet;
#X connect 0 0 1 0;
#X connect 1 0 2 0;
#X connect 1 1 4 0;
#X connect 1 2 6 0;
#X connect 2 0 3 0;
#X connect 3 0 7 0;
#X connect 4 0 5 0;
#X connect 5 0 3 1;
#X connect 6 0 5 1;
#X connect 7 0 8 0;
#X restore 757 498 pd length;
#X obj 787 545 change;
#X obj 786 568 tgl 15 0 empty empty empty 17 7 0 10 -262144 -1 -1 0
1;
#X obj 639 154 spigot;
#X obj 662 516 sel 1 0;
#X msg 683 542 0;
#X obj 717 80 loadbang;
#X obj 787 523 > 0.3;
#X obj 640 718 i;
#X obj 675 646 * 4.9;
#X obj 675 668 + 4;
#X obj 483 645 *;
#X obj 483 621 t b f;
#X msg 483 667 \$1 2;
#X obj 287 612 t b b;
#X msg 330 636 0;
#X msg 288 657 1;
#X obj 91 341 t a a b;
#X obj 288 635 del 2;
#X obj 91 252 t b f;
#X obj 91 274 del 2;
#X obj 91 296 f;
#X obj 822 632 clip -1 1;
#X obj 900 630 clip -1 1;
#X obj 822 654 atan2;
#X obj 828 676 sin;
#X obj 764 703 moses 0;
#X obj 811 725 * 24;
#X obj 889 446 sel 0 1;
#X msg 933 480 1;
#X msg 874 539 0;
#X msg 894 482 stop;
#X obj 893 566 change;
#X obj 892 592 tgl 15 0 empty empty empty 17 7 0 10 -262144 -1 -1 0
1;
#X obj 653 412 s BOUTONS;
#X obj 653 350 tgl 15 0 empty empty empty 17 7 0 10 -262144 -1 -1 0
1;
#X msg 653 370 4 \$1;
#X obj 653 393 list prepend \$1;
#X obj 874 517 del 100;
#X obj 61 74 t b b;
#X obj 219 229 f;
#X obj 264 466 gammeRound g2 50;
#X obj 394 457 gammeRound g1 50;
#X obj 264 488 spigot 1;
#X obj 394 478 spigot 0;
#X obj 329 488 == 0;
#X obj 544 266 tgl 15 0 empty empty empty 17 7 0 10 -262144 -1 -1 0
1;
#X obj 1011 486 b;
#X obj 1011 402 +;
#X obj 1011 464 f;
#X msg 955 365 1;
#X floatatom 972 514 5 0 0 0 - - -, f 5;
#X obj 1011 424 clip 0 30;
#X obj 1058 454 del 100;
#X msg 1058 474 -3;
#N canvas 4 74 703 311 zerocross 0;
#X obj 68 29 inlet;
#X obj 68 51 unpack f f f;
#X obj 68 87 moses -0.3;
#X obj 148 86 moses 0.3;
#X msg 68 110 -1;
#X msg 207 109 1;
#X obj 68 132 change;
#X obj 249 88 moses -0.3;
#X obj 329 87 moses 0.3;
#X msg 249 111 -1;
#X msg 388 110 1;
#X obj 249 133 change;
#X obj 429 85 moses -0.3;
#X obj 509 84 moses 0.3;
#X msg 429 108 -1;
#X msg 568 107 1;
#X obj 429 130 change;
#X obj 68 154 b;
#X obj 68 176 del 1;
#X obj 68 198 outlet;
#X connect 0 0 1 0;
#X connect 1 0 2 0;
#X connect 1 1 7 0;
#X connect 1 2 12 0;
#X connect 2 0 4 0;
#X connect 2 1 3 0;
#X connect 3 1 5 0;
#X connect 4 0 6 0;
#X connect 5 0 6 0;
#X connect 6 0 17 0;
#X connect 7 0 9 0;
#X connect 7 1 8 0;
#X connect 8 1 10 0;
#X connect 9 0 11 0;
#X connect 10 0 11 0;
#X connect 11 0 17 0;
#X connect 12 0 14 0;
#X connect 12 1 13 0;
#X connect 13 1 15 0;
#X connect 14 0 16 0;
#X connect 15 0 16 0;
#X connect 16 0 17 0;
#X connect 17 0 18 0;
#X connect 18 0 19 0;
#X restore 880 312 pd zerocross;
#X obj 837 411 bng 15 250 50 0 empty empty empty 17 7 0 10 -262144
-1 -1;
#X obj 983 549 > 15;
#X obj 976 602 moses 8;
#X obj 1034 603 moses 16;
#X obj 1099 603 moses 24;
#X obj 1027 673 f;
#X msg 1027 725 nd 16 \$1;
#X obj 1027 695 change;
#X msg 1082 627 4;
#X msg 1124 631 8;
#X msg 984 629 2;
#X msg 1026 628 3;
#X obj 553 655 loadbang;
#X obj 553 677 f \$1;
#X obj 553 699 > 1;
#X floatatom 479 722 5 0 0 0 - - -, f 5;
#X obj 415 747 *~ 0.5;
#X obj 415 725 delai 7;
#X obj 640 540 t b b;
#X obj 671 621 unpack f f;
#X obj 91 385 s \$0-banknum;
#X obj 49 433 r \$0-banknum;
#X obj 59 527 tabread;
#X obj 49 455 t a a;
#X msg 91 363 \$2 \$1;
#X msg 46 483 \$2;
#X obj 46 505 - 1;
#X obj 404 511 r \$0-banknum;
#X obj 404 558 tabread4~;
#X msg 404 533 set NT-\$1-\$2;
#X floatatom 176 586 5 0 0 0 - - -, f 5;
#X msg 81 484 set notelength-\$1;
#X msg 209 280 set noteaccord-\$1;
#X obj 237 354 tabread;
#N canvas 5 74 721 343 echo 0;
#X obj 145 73 delwrite~ \$0-echo 1500;
#X obj 169 166 vd~ \$0-echo;
#X obj 144 276 outlet~;
#X obj 145 28 inlet~;
#X obj 341 22 inlet;
#X obj 341 44 clip 0 1;
#X obj 319 70 * 1500;
#X msg 319 92 \$1 500;
#X obj 319 114 line~;
#X obj 145 219 *~;
#X obj 376 113 line~;
#X msg 376 91 \$1 50;
#X obj 374 229 rev1~;
#X floatatom 413 205 5 0 0 0 - - -, f 5;
#X obj 606 55 clip 0 1;
#X obj 374 202 *~;
#X obj 605 96 line~;
#X msg 605 74 \$1 50;
#X obj 606 28 * -1;
#X obj 463 135 loadbang;
#X msg 463 157 75;
#X connect 1 0 9 0;
#X connect 3 0 0 0;
#X connect 3 0 15 0;
#X connect 4 0 5 0;
#X connect 4 0 18 0;
#X connect 5 0 6 0;
#X connect 5 0 11 0;
#X connect 6 0 7 0;
#X connect 7 0 8 0;
#X connect 8 0 1 0;
#X connect 9 0 2 0;
#X connect 9 0 0 0;
#X connect 10 0 9 1;
#X connect 11 0 10 0;
#X connect 12 0 2 0;
#X connect 13 0 12 1;
#X connect 14 0 17 0;
#X connect 15 0 12 0;
#X connect 16 0 15 1;
#X connect 17 0 16 0;
#X connect 18 0 14 0;
#X connect 19 0 20 0;
#X connect 20 0 13 0;
#X restore 423 660 pd echo;
#X obj 624 605 f;
#X floatatom 196 392 5 0 0 0 - - -, f 5;
#X floatatom 189 558 5 0 0 0 - - -, f 5;
#X floatatom 200 517 5 0 0 0 - - -, f 5;
#X obj 35 115 del 2;
#X floatatom 353 529 5 0 0 0 - - -, f 5;
#X floatatom 32 550 5 0 0 0 - - -, f 5;
#X obj 193 709 phasor~;
#X obj 212 635 mtof;
#X obj 186 774 out~;
#X obj 212 657 +~;
#X obj 303 706 *~ 2;
#X obj 302 683 osc~ 5;
#X obj 249 614 - 5;
#X obj 265 421 + 5;
#X obj 306 419 + -5;
#X msg 127 641 48;
#X msg 122 667 44.1;
#X floatatom 125 695 5 0 0 0 - - -, f 5;
#X msg 158 609 48 44.1;
#X obj 158 631 /;
#X obj 158 653 * 48;
#X obj 263 445 + 0.07;
#X obj 194 732 *~ 0;
#X obj 248 738 hsl 128 15 0 1 0 1 empty empty empty -2 -8 0 10 -262144
-1 -1 0 1;
#X obj 238 758 pow 2;
#X floatatom 320 565 5 0 0 0 - - -, f 5;
#X obj 264 512 + -5;
#X obj 675 690 clip 1 7;
#X obj 3 648 bng 15 250 50 0 empty empty empty 17 7 0 10 -262144 -1
-1;
#X obj 313 336 bng 15 250 50 0 empty empty empty 17 7 0 10 -262144
-1 -1;
#X obj 12 436 bng 15 250 50 0 empty empty empty 17 7 0 10 -262144 -1
-1;
#X obj 76 671 / 44.1;
#X obj 404 584 hip~ 5;
#X obj 764 747 + 12;
#X obj 764 725 * 24;
#X connect 0 0 69 0;
#X connect 1 0 71 0;
#X connect 2 0 3 0;
#X connect 3 0 1 0;
#X connect 4 0 92 1;
#X connect 5 0 0 1;
#X connect 5 0 43 0;
#X connect 5 0 140 0;
#X connect 6 0 141 0;
#X connect 7 1 14 0;
#X connect 7 1 23 0;
#X connect 8 0 12 0;
#X connect 8 0 125 0;
#X connect 9 0 10 0;
#X connect 10 0 64 0;
#X connect 11 0 8 1;
#X connect 13 0 19 0;
#X connect 14 0 157 0;
#X connect 14 1 15 1;
#X connect 14 1 25 0;
#X connect 15 0 16 0;
#X connect 15 0 169 0;
#X connect 16 0 29 0;
#X connect 17 0 18 0;
#X connect 18 0 24 0;
#X connect 19 0 21 0;
#X connect 19 1 32 1;
#X connect 20 0 30 0;
#X connect 21 0 22 0;
#X connect 21 1 32 0;
#X connect 22 0 20 0;
#X connect 26 0 28 0;
#X connect 27 0 26 0;
#X connect 29 0 13 1;
#X connect 30 0 136 0;
#X connect 31 0 55 0;
#X connect 31 0 38 0;
#X connect 32 0 175 0;
#X connect 33 0 158 1;
#X connect 33 0 170 1;
#X connect 34 0 158 0;
#X connect 35 0 36 0;
#X connect 36 0 31 0;
#X connect 37 0 36 0;
#X connect 39 0 40 0;
#X connect 40 1 42 0;
#X connect 41 0 39 0;
#X connect 41 1 40 1;
#X connect 42 0 44 1;
#X connect 43 0 41 0;
#X connect 44 0 2 0;
#X connect 45 0 46 0;
#X connect 45 2 48 0;
#X connect 45 3 52 0;
#X connect 45 3 107 0;
#X connect 45 4 127 0;
#X connect 46 0 56 0;
#X connect 46 0 45 0;
#X connect 48 1 74 0;
#X connect 48 2 49 0;
#X connect 48 2 75 0;
#X connect 49 0 51 0;
#X connect 51 0 50 0;
#X connect 52 0 59 0;
#X connect 53 0 54 0;
#X connect 54 0 80 0;
#X connect 55 0 91 0;
#X connect 56 0 126 0;
#X connect 56 1 57 0;
#X connect 57 0 54 0;
#X connect 58 0 37 0;
#X connect 59 0 53 0;
#X connect 60 0 4 0;
#X connect 61 0 62 0;
#X connect 62 0 171 0;
#X connect 63 0 65 0;
#X connect 64 0 63 0;
#X connect 64 1 63 1;
#X connect 65 0 11 0;
#X connect 66 0 70 0;
#X connect 66 1 67 0;
#X connect 67 0 63 0;
#X connect 68 0 63 0;
#X connect 69 0 132 0;
#X connect 69 1 6 0;
#X connect 70 0 68 0;
#X connect 71 0 72 0;
#X connect 71 0 66 0;
#X connect 71 1 73 1;
#X connect 72 0 73 0;
#X connect 73 0 0 0;
#X connect 74 0 76 0;
#X connect 75 0 76 1;
#X connect 76 0 77 0;
#X connect 78 0 178 0;
#X connect 78 1 79 0;
#X connect 79 0 177 0;
#X connect 80 0 90 0;
#X connect 80 1 81 0;
#X connect 80 1 83 0;
#X connect 81 0 84 0;
#X connect 82 0 84 0;
#X connect 83 0 90 0;
#X connect 84 0 85 0;
#X connect 85 0 55 1;
#X connect 87 0 88 0;
#X connect 88 0 89 0;
#X connect 89 0 86 0;
#X connect 90 0 82 0;
#X connect 91 0 147 0;
#X connect 91 1 92 0;
#X connect 92 0 5 0;
#X connect 93 0 95 0;
#X connect 93 0 146 0;
#X connect 94 0 96 0;
#X connect 95 0 170 0;
#X connect 96 0 148 0;
#X connect 96 0 170 0;
#X connect 97 0 95 1;
#X connect 98 0 96 1;
#X connect 98 0 97 0;
#X connect 99 0 105 0;
#X connect 100 0 104 0;
#X connect 101 0 99 0;
#X connect 101 0 100 1;
#X connect 101 0 103 0;
#X connect 101 0 109 0;
#X connect 101 0 110 0;
#X connect 102 0 100 0;
#X connect 104 0 101 0;
#X connect 105 0 106 0;
#X connect 106 0 100 0;
#X connect 107 0 102 0;
#X connect 107 0 108 0;
#X connect 109 0 98 0;
#X connect 110 0 118 0;
#X connect 110 1 111 0;
#X connect 111 0 119 0;
#X connect 111 1 112 0;
#X connect 112 0 116 0;
#X connect 112 1 117 0;
#X connect 113 0 115 0;
#X connect 114 0 36 0;
#X connect 115 0 114 0;
#X connect 116 0 113 0;
#X connect 117 0 113 0;
#X connect 118 0 113 0;
#X connect 119 0 113 0;
#X connect 120 0 121 0;
#X connect 121 0 122 0;
#X connect 122 0 12 2;
#X connect 123 0 125 1;
#X connect 124 0 12 1;
#X connect 125 0 124 0;
#X connect 126 0 91 0;
#X connect 126 1 60 0;
#X connect 127 0 61 0;
#X connect 127 0 143 0;
#X connect 127 1 78 0;
#X connect 129 0 131 0;
#X connect 130 0 13 0;
#X connect 130 0 138 0;
#X connect 131 0 133 0;
#X connect 131 1 139 0;
#X connect 132 0 128 0;
#X connect 133 0 134 0;
#X connect 134 0 130 0;
#X connect 134 0 149 0;
#X connect 135 0 137 0;
#X connect 136 0 176 0;
#X connect 137 0 136 0;
#X connect 139 0 130 0;
#X connect 140 0 141 0;
#X connect 141 0 7 0;
#X connect 141 0 144 0;
#X connect 142 0 8 0;
#X connect 143 0 142 1;
#X connect 147 0 44 0;
#X connect 150 0 166 0;
#X connect 151 0 153 0;
#X connect 153 0 150 0;
#X connect 154 0 153 1;
#X connect 155 0 154 0;
#X connect 157 0 94 0;
#X connect 157 0 165 0;
#X connect 158 0 157 1;
#X connect 159 0 175 1;
#X connect 160 0 175 1;
#X connect 161 0 175 1;
#X connect 162 0 163 0;
#X connect 163 0 164 0;
#X connect 165 0 93 0;
#X connect 166 0 152 0;
#X connect 166 0 152 1;
#X connect 167 0 168 0;
#X connect 168 0 166 1;
#X connect 170 0 15 0;
#X connect 170 0 145 0;
#X connect 170 0 151 0;
#X connect 171 0 60 1;
#X connect 172 0 22 0;
#X connect 173 0 157 0;
#X connect 174 0 134 0;
#X connect 175 0 22 1;
#X connect 176 0 8 0;
#X connect 176 0 142 0;
#X connect 177 0 34 0;
#X connect 178 0 177 0;
