#N canvas 463 74 858 641 10;
#X obj 47 298 ssaw~;
#X obj 47 320 lop~;
#X obj 47 231 mtof;
#X obj 88 299 * 2;
#X obj 153 300 ssaw~;
#X obj 153 322 lop~;
#X obj 153 233 mtof;
#X obj 194 301 * 2;
#X obj 257 300 ssaw~;
#X obj 257 322 lop~;
#X obj 257 233 mtof;
#X obj 298 301 * 2;
#X obj 363 301 ssaw~;
#X obj 363 323 lop~;
#X obj 363 234 mtof;
#X obj 404 302 * 2;
#X obj 638 425 pow 2;
#X obj 641 402 hsl 128 15 0 1 0 1 empty empty empty -2 -8 0 10 -262144
-1 -1 7500 1;
#X obj 48 163 gammeRound g2 50;
#X obj 153 163 gammeRound g2 50;
#X obj 258 165 gammeRound g2 50;
#X obj 364 166 gammeRound g2 50;
#X obj 48 142 + 0;
#X obj 365 143 + 7;
#X obj 48 202 +;
#X obj 154 203 +;
#X obj 258 204 +;
#X obj 364 205 +;
#X floatatom 441 73 5 0 0 0 - - -, f 5;
#X obj 76 200 t b f;
#X obj 185 205 t b f;
#X obj 283 208 t b f;
#X obj 390 205 t b f;
#X floatatom 209 77 5 0 0 0 - - -, f 5;
#X obj 153 139 + 3.9;
#X obj 256 140 + 4.9;
#X msg 309 72 60.13;
#X obj 166 475 *~;
#X obj 165 398 hip~ 50;
#X obj 442 48 r TRANSPOSE_OFFSET;
#X obj 319 45 loadbang;
#X obj 156 594 out~;
#X obj 503 157 osc~ 6;
#X obj 363 278 +~;
#X obj 257 276 +~;
#X obj 154 277 +~;
#X obj 47 274 +~;
#X obj 503 180 *~ 5;
#X obj 503 208 +~ 1;
#X obj 166 433 bob~;
#X obj 440 399 mtof;
#X obj 440 326 * 80;
#X obj 440 348 + 45;
#X obj 467 293 hsl 128 15 0 1 0 0 empty empty empty -2 -8 0 10 -262144
-1 -1 12271 1;
#X msg 440 420 \$1 50;
#X obj 440 442 line~;
#X obj 251 410 sig~ 2.5;
#X obj 631 180 boutonled \$1 5;
#X obj 543 489 line~;
#X msg 543 467 \$1 2;
#X obj 543 511 *~;
#X obj 590 177 f;
#X obj 697 227 unpack f f;
#X obj 697 250 abs;
#X obj 440 370 clip 10 120;
#X msg 91 430 clear;
#X obj 762 296 clip 40 100;
#X obj 763 251 * 40;
#X obj 763 274 + 70;
#X obj 697 272 * -1;
#X obj 697 294 + 1;
#X obj 166 455 lop~ 3000;
#X obj 92 537 *~ 0.6;
#X obj 202 534 *~ 0.8;
#X obj 69 578 s~ \$0-fb;
#X obj 285 545 r~ \$0-fb;
#X obj 196 509 delai 93;
#X obj 93 509 delai 73.1;
#X floatatom 679 93 5 0 0 0 - - -, f 5;
#X obj 550 74 + 6;
#X obj 550 123 line~;
#X msg 550 101 \$1 1200;
#X obj 579 48 * 2;
#X connect 0 0 1 0;
#X connect 1 0 38 0;
#X connect 2 0 3 0;
#X connect 2 0 46 0;
#X connect 3 0 1 1;
#X connect 4 0 5 0;
#X connect 5 0 38 0;
#X connect 6 0 7 0;
#X connect 6 0 45 0;
#X connect 7 0 5 1;
#X connect 8 0 9 0;
#X connect 9 0 38 0;
#X connect 10 0 11 0;
#X connect 10 0 44 0;
#X connect 11 0 9 1;
#X connect 12 0 13 0;
#X connect 13 0 38 0;
#X connect 14 0 15 0;
#X connect 14 0 43 0;
#X connect 15 0 13 1;
#X connect 16 0 60 1;
#X connect 17 0 16 0;
#X connect 18 0 24 0;
#X connect 19 0 25 0;
#X connect 20 0 26 0;
#X connect 21 0 27 0;
#X connect 22 0 18 0;
#X connect 23 0 21 0;
#X connect 24 0 2 0;
#X connect 25 0 6 0;
#X connect 26 0 10 0;
#X connect 27 0 14 0;
#X connect 28 0 32 0;
#X connect 28 0 31 0;
#X connect 28 0 30 0;
#X connect 28 0 29 0;
#X connect 29 0 24 0;
#X connect 29 1 24 1;
#X connect 30 0 25 0;
#X connect 30 1 25 1;
#X connect 31 0 26 0;
#X connect 31 1 26 1;
#X connect 32 0 27 0;
#X connect 32 1 27 1;
#X connect 33 0 22 0;
#X connect 33 0 23 0;
#X connect 33 0 34 0;
#X connect 33 0 35 0;
#X connect 34 0 19 0;
#X connect 35 0 20 0;
#X connect 36 0 33 0;
#X connect 37 0 76 0;
#X connect 37 0 41 0;
#X connect 38 0 49 0;
#X connect 39 0 28 0;
#X connect 40 0 36 0;
#X connect 42 0 47 0;
#X connect 43 0 12 0;
#X connect 44 0 8 0;
#X connect 45 0 4 0;
#X connect 46 0 0 0;
#X connect 47 0 48 0;
#X connect 48 0 43 1;
#X connect 48 0 44 1;
#X connect 48 0 45 1;
#X connect 48 0 46 1;
#X connect 49 0 71 0;
#X connect 50 0 54 0;
#X connect 51 0 52 0;
#X connect 52 0 64 0;
#X connect 53 0 51 0;
#X connect 54 0 55 0;
#X connect 55 0 49 1;
#X connect 56 0 49 2;
#X connect 57 0 59 0;
#X connect 57 0 61 0;
#X connect 57 4 62 0;
#X connect 58 0 60 0;
#X connect 59 0 58 0;
#X connect 60 0 37 1;
#X connect 61 0 57 0;
#X connect 62 0 63 0;
#X connect 62 1 67 0;
#X connect 62 1 82 0;
#X connect 63 0 69 0;
#X connect 64 0 50 0;
#X connect 65 0 49 0;
#X connect 66 0 33 0;
#X connect 67 0 68 0;
#X connect 68 0 66 0;
#X connect 69 0 70 0;
#X connect 70 0 53 0;
#X connect 71 0 37 0;
#X connect 72 0 41 0;
#X connect 72 0 74 0;
#X connect 73 0 77 0;
#X connect 75 0 76 0;
#X connect 76 0 73 0;
#X connect 76 0 41 1;
#X connect 77 0 72 0;
#X connect 79 0 81 0;
#X connect 79 0 78 0;
#X connect 80 0 42 0;
#X connect 81 0 80 0;
#X connect 82 0 79 0;
