#N canvas 8 148 533 288 10;
#X obj 47 145 throw~ outl;
#X obj 130 146 throw~ outr;
#X obj 47 36 inlet~;
#X obj 129 35 inlet~;
#X obj 194 35 inlet invert;
#X obj 113 81 sel 0 1;
#X msg 78 109 set outl;
#X msg 142 108 set outr;
#X msg 282 108 set outl;
#X msg 214 108 set outr;
#X connect 2 0 0 0;
#X connect 3 0 1 0;
#X connect 4 0 5 0;
#X connect 5 0 6 0;
#X connect 5 0 7 0;
#X connect 5 1 9 0;
#X connect 5 1 8 0;
#X connect 6 0 0 0;
#X connect 7 0 1 0;
#X connect 8 0 1 0;
#X connect 9 0 0 0;
