#N canvas 231 173 696 662 10;
#X obj 67 418 readsf~ 1;
#X obj 69 527 *~;
#X obj 67 334 pack s s;
#X obj 120 312 r DATASDIR;
#X msg 67 382 stop \, open \$1 \, start;
#X obj 160 489 hsl 128 15 0 1 0 1 empty empty empty -2 -8 0 10 -262144
-1 -1 12400 1;
#X obj 157 508 pow 2;
#X msg 157 530 \$1 10;
#X obj 157 552 line~;
#X msg 67 356 symbol \$2/\$1.wav;
#X obj 67 263 pack 1 1;
#X msg 67 287 symbol PROSES/\$2/\$1;
#X obj 69 660 out~;
#X obj 94 594 loadbang;
#X obj 94 616 f \$1;
#X obj 94 638 > 1;
#N canvas 5 74 721 343 echo 0;
#X obj 145 73 delwrite~ \$0-echo 1500;
#X obj 169 166 vd~ \$0-echo;
#X obj 144 276 outlet~;
#X obj 145 28 inlet~;
#X obj 341 22 inlet;
#X obj 341 44 clip 0 1;
#X obj 319 70 * 1500;
#X msg 319 92 \$1 500;
#X obj 319 114 line~;
#X obj 145 219 *~;
#X obj 376 113 line~;
#X msg 376 91 \$1 50;
#X obj 374 229 rev1~;
#X floatatom 413 205 5 0 0 0 - - -, f 5;
#X obj 606 55 clip 0 1;
#X obj 374 202 *~;
#X obj 605 96 line~;
#X msg 605 74 \$1 50;
#X obj 606 28 * -1;
#X obj 463 135 loadbang;
#X msg 463 157 75;
#X connect 1 0 9 0;
#X connect 3 0 0 0;
#X connect 3 0 15 0;
#X connect 4 0 5 0;
#X connect 4 0 18 0;
#X connect 5 0 6 0;
#X connect 5 0 11 0;
#X connect 6 0 7 0;
#X connect 7 0 8 0;
#X connect 8 0 1 0;
#X connect 9 0 2 0;
#X connect 9 0 0 0;
#X connect 10 0 9 1;
#X connect 11 0 10 0;
#X connect 12 0 2 0;
#X connect 13 0 12 1;
#X connect 14 0 17 0;
#X connect 15 0 12 0;
#X connect 16 0 15 1;
#X connect 17 0 16 0;
#X connect 18 0 14 0;
#X connect 19 0 20 0;
#X connect 20 0 13 0;
#X restore 82 570 pd echo;
#X obj 20 46 tgl 15 0 empty empty empty 17 7 0 10 -262144 -1 -1 0 1
;
#N canvas 0 79 450 300 length 0;
#X obj 156 25 inlet;
#X obj 156 47 unpack f f f;
#X obj 156 69 pow 2;
#X obj 156 91 +;
#X obj 198 69 pow 2;
#X obj 198 91 +;
#X obj 242 70 pow 2;
#X obj 156 113 sqrt;
#X obj 156 135 outlet;
#X connect 0 0 1 0;
#X connect 1 0 2 0;
#X connect 1 1 4 0;
#X connect 1 2 6 0;
#X connect 2 0 3 0;
#X connect 3 0 7 0;
#X connect 4 0 5 0;
#X connect 5 0 3 1;
#X connect 6 0 5 1;
#X connect 7 0 8 0;
#X restore 149 37 pd length;
#X obj 149 81 change;
#X obj 149 59 > 0.3;
#X obj 254 123 unpack f f;
#X obj 321 146 * 2;
#X obj 321 168 + 2;
#X obj 321 192 clip 1 3;
#X obj 67 218 random 2;
#X obj 65 145 sel 1 2 3;
#X msg 65 167 11;
#X msg 96 167 8;
#X msg 128 167 8;
#X obj 65 121 t f f;
#X obj 67 194 t b f;
#X obj 67 240 + 1;
#X obj 65 97 f;
#X obj 66 6 boutonled \$1 3;
#X obj 321 214 i;
#X floatatom 314 254 5 0 0 0 - - -, f 5;
#X obj 109 468 limiter~;
#X obj 68 439 *~ 2;
#X obj 68 468 z~ 64;
#X obj 68 490 *~;
#X msg 288 347 stop;
#X obj 66 28 sel 1;
#X obj 66 50 f;
#X obj 65 73 sel 0 1;
#X msg 221 450 0;
#X msg 167 154 1;
#X obj 360 340 tgl 15 0 empty empty empty 17 7 0 10 -262144 -1 -1 0
1;
#X connect 0 0 38 0;
#X connect 0 1 45 0;
#X connect 1 0 12 0;
#X connect 1 0 16 0;
#X connect 2 0 9 0;
#X connect 3 0 2 1;
#X connect 4 0 0 0;
#X connect 5 0 6 0;
#X connect 6 0 7 0;
#X connect 7 0 8 0;
#X connect 8 0 1 1;
#X connect 9 0 4 0;
#X connect 10 0 11 0;
#X connect 11 0 2 0;
#X connect 13 0 14 0;
#X connect 14 0 15 0;
#X connect 15 0 12 2;
#X connect 16 0 12 1;
#X connect 17 0 34 0;
#X connect 17 0 44 0;
#X connect 18 0 20 0;
#X connect 20 0 19 0;
#X connect 21 0 16 1;
#X connect 21 1 22 0;
#X connect 22 0 23 0;
#X connect 23 0 24 0;
#X connect 24 0 35 0;
#X connect 25 0 32 0;
#X connect 26 0 27 0;
#X connect 26 1 28 0;
#X connect 26 2 29 0;
#X connect 27 0 31 0;
#X connect 28 0 31 0;
#X connect 29 0 31 0;
#X connect 30 0 26 0;
#X connect 30 1 10 1;
#X connect 30 1 46 0;
#X connect 31 0 25 0;
#X connect 31 1 25 1;
#X connect 32 0 10 0;
#X connect 33 0 30 0;
#X connect 34 0 42 0;
#X connect 34 3 18 0;
#X connect 34 4 21 0;
#X connect 35 0 33 1;
#X connect 35 0 36 0;
#X connect 37 0 40 1;
#X connect 38 0 37 0;
#X connect 38 0 39 0;
#X connect 39 0 40 0;
#X connect 40 0 1 0;
#X connect 41 0 0 0;
#X connect 41 0 45 0;
#X connect 42 0 43 0;
#X connect 43 0 44 0;
#X connect 44 0 33 0;
#X connect 44 1 41 0;
#X connect 45 0 47 0;
#X connect 46 0 47 0;
#X connect 47 0 43 1;
#X connect 47 0 34 0;
