#N canvas 248 148 1202 748 10;
#X floatatom 830 352 5 0 0 0 - - -, f 5;
#X obj 1074 425 hradio 15 1 0 8 empty empty empty 0 -8 0 10 -262144
-1 -1 8;
#X obj 830 329 + 1;
#X obj 196 318 r \$0-t-len;
#X obj 293 150 r CLOCK;
#X obj 171 441 *;
#X obj 171 492 pack f f f;
#X obj 199 441 + 1;
#X obj 199 461 *;
#X msg 171 514 \$1 \, \$2 \$3;
#X obj 171 536 line~;
#X obj 276 591 *~;
#X obj 404 428 hsl 128 15 0 1 0 1 empty empty empty -2 -8 0 10 -262144
-1 -1 9500 1;
#X obj 407 475 pow 2;
#X obj 306 585 line~;
#X floatatom 235 346 8 0 0 0 - - -, f 8;
#X floatatom 116 399 8 0 0 0 - - -, f 8;
#X obj 235 467 / 48;
#X obj 293 254 / 1;
#X obj 196 344 / 32;
#X floatatom 578 485 5 0 0 0 - - -, f 5;
#X obj 257 439 t b f;
#X floatatom 254 417 5 0 0 0 - - -, f 5;
#X msg 893 333 9;
#X msg 863 333 1;
#X msg 922 334 17;
#X msg 867 351 25;
#X msg 896 352 33;
#X msg 881 394 41;
#X obj 573 285 tgl 15 0 empty empty empty 17 7 0 10 -262144 -1 -1 0
1;
#X obj 407 451 *;
#X obj 445 452 t b f;
#X obj 830 194 + 1;
#X obj 830 216 / 2;
#X obj 830 238 * 40.9;
#X obj 830 260 i;
#X obj 1102 405 change;
#X obj 293 194 ndmetro;
#X msg 363 169 nd 32 2;
#X obj 363 147 loadbang;
#X obj 276 675 out~;
#X obj 764 414 f;
#X obj 644 446 f;
#X obj 644 523 mod 41;
#X obj 644 545 + 1;
#X obj 582 444 sel 0;
#X obj 293 341 t f f f;
#X obj 408 302 div 2;
#X obj 408 324 change;
#X obj 408 346 sel 0;
#X msg 614 200 1;
#X msg 623 234 0;
#X obj 596 261 f;
#X obj 603 170 sel 0 1;
#X obj 598 283 sel 1;
#X obj 573 309 s \$0-on;
#X obj 660 8 r \$0-on;
#X obj 635 95 r \$0-on;
#X obj 540 140 route 0 1;
#X obj 540 162 sel 1;
#X obj 646 199 del 250;
#X obj 540 118 list prepend 0;
#X msg 668 170 stop;
#X obj 573 201 t b b;
#X obj 724 147 sel 1 0;
#X obj 724 188 f;
#X obj 724 210 + 1;
#X obj 755 187 del 250;
#X msg 755 207 0;
#X obj 724 237 sel 2;
#X obj 724 259 del 10;
#X msg 724 280 0;
#X obj 757 293 tgl 15 0 empty empty empty 17 7 0 10 -262144 -1 -1 0
1;
#X obj 757 317 s \$0-loop;
#N canvas 5 74 450 300 clignote-si-loop 0;
#X obj 121 20 inlet;
#X obj 274 20 inlet;
#X obj 121 230 outlet;
#X obj 274 42 t f f;
#X obj 306 106 tgl 15 0 empty empty empty 17 7 0 10 -262144 -1 -1 1
1;
#X obj 306 76 metro 150;
#X obj 259 76 sel 0;
#X msg 259 98 1;
#X obj 136 148 t b f;
#X obj 121 197 change;
#X obj 121 175 * 1;
#X connect 0 0 10 0;
#X connect 1 0 3 0;
#X connect 3 0 6 0;
#X connect 3 1 5 0;
#X connect 4 0 8 0;
#X connect 5 0 4 0;
#X connect 6 0 7 0;
#X connect 7 0 4 0;
#X connect 8 0 10 0;
#X connect 8 1 10 1;
#X connect 9 0 2 0;
#X connect 10 0 9 0;
#X restore 660 35 pd clignote-si-loop;
#X obj 790 7 r \$0-loop;
#X obj 644 496 + 1;
#X obj 644 474 - 1;
#X obj 684 474 r \$0-loop;
#X obj 684 496 == 0;
#X floatatom 662 355 5 0 0 0 - - -, f 5;
#X floatatom 150 217 5 0 0 0 - - -, f 5;
#X obj 764 466 pack f 1;
#X obj 970 299 sel 1 2 3 4, f 19;
#X msg 970 320 23;
#X msg 1002 320 16;
#X msg 1035 320 23;
#X msg 1067 320 28;
#X obj 970 345 f;
#X obj 838 96 unpack f f;
#X obj 820 122 f;
#X obj 887 125 f;
#X obj 960 154 + 1;
#X obj 960 176 / 2;
#X obj 960 198 * 7;
#X obj 960 220 clip 1 4;
#X obj 960 269 t f f;
#X obj 970 367 s \$0-banklen;
#X obj 866 190 r \$0-banklen;
#X obj 866 212 + 0.9;
#X obj 673 383 r \$0-banklen;
#X obj 1002 124 hradio 15 1 0 4 empty empty empty 0 -8 0 10 -262144
-1 -1 0;
#X obj 1002 144 + 1;
#X obj 601 530 bng 15 250 50 0 empty empty empty 17 7 0 10 -262144
-1 -1;
#X obj 554 627 bng 15 250 50 0 empty empty empty 17 7 0 10 -262144
-1 -1;
#X obj 660 59 boutonled \$1 2;
#X floatatom 777 444 5 0 0 0 - - -, f 5;
#X obj 960 242 i;
#X obj 293 228 spigot;
#X obj 344 229 r \$0-on;
#X obj 673 405 t b f;
#X floatatom 1027 260 5 0 0 0 - - -, f 5;
#X obj 786 98 t b b;
#X floatatom 800 285 5 0 0 0 - - -, f 5;
#X floatatom 892 244 5 0 0 0 - - -, f 5;
#X obj 428 600 loadbang;
#X obj 428 622 f \$1;
#X obj 428 644 > 1;
#X obj 292 637 *~ 0.5;
#X obj 347 614 hip~ 1000;
#X obj 350 672 tgl 15 0 empty empty empty 17 7 0 10 -262144 -1 -1 0
1;
#X obj 348 638 delai 2;
#X msg 306 563 \$1 1;
#X floatatom 434 515 5 0 0 0 - - -, f 5;
#X obj 306 517 *;
#X obj 293 298 del 1;
#X obj 293 320 f;
#X msg 342 452 0;
#X msg 313 453 1;
#X obj 293 276 t b f b;
#N canvas 225 74 546 401 filter 0;
#X obj 103 79 inlet~;
#X obj 104 221 outlet~;
#X obj 322 33 inlet;
#X obj 322 55 unpack f f;
#X obj 315 90 max 0;
#X obj 315 112 * -1;
#X obj 315 134 * 130;
#X obj 315 156 + 130;
#X obj 315 197 mtof;
#X msg 315 219 \$1 50;
#X obj 315 241 line~;
#X obj 394 91 abs;
#X msg 430 290 \$1 50;
#X obj 430 312 line~;
#X floatatom 358 262 8 0 0 0 - - -, f 8;
#X floatatom 256 89 5 0 0 0 - - -, f 5;
#X obj 430 266 clip 0 3.5;
#X obj 430 197 *;
#X floatatom 489 235 5 0 0 0 - - -, f 5;
#X obj 419 148 clip 0 1;
#X obj 419 170 pow 0.2;
#X obj 315 178 clip 50 130;
#X obj 430 244 * 8;
#X floatatom 492 179 5 0 0 0 - - -, f 5;
#X floatatom 264 170 5 0 0 0 - - -, f 5;
#X obj 103 193 bob~;
#X msg 159 269 clear;
#X obj 212 86 * -1;
#X obj 212 107 max 0;
#X obj 218 130 * 130;
#X obj 218 169 mtof;
#X msg 218 190 \$1 50;
#X obj 218 212 line;
#X obj 103 153 hp4_cheb~ 10 50;
#X floatatom 256 312 8 0 0 0 - - -, f 8;
#X obj 214 36 bng 15 250 50 0 empty empty empty 17 7 0 10 -262144 -1
-1;
#X obj 218 150 clip 20 100;
#X connect 0 0 33 0;
#X connect 2 0 3 0;
#X connect 3 0 4 0;
#X connect 3 0 15 0;
#X connect 3 0 27 0;
#X connect 3 1 11 0;
#X connect 4 0 5 0;
#X connect 4 0 19 0;
#X connect 5 0 6 0;
#X connect 6 0 7 0;
#X connect 7 0 21 0;
#X connect 8 0 9 0;
#X connect 8 0 14 0;
#X connect 9 0 10 0;
#X connect 10 0 25 1;
#X connect 11 0 17 1;
#X connect 12 0 13 0;
#X connect 13 0 25 2;
#X connect 16 0 12 0;
#X connect 17 0 18 0;
#X connect 17 0 22 0;
#X connect 19 0 20 0;
#X connect 20 0 17 0;
#X connect 21 0 8 0;
#X connect 22 0 16 0;
#X connect 23 0 22 0;
#X connect 24 0 8 0;
#X connect 25 0 1 0;
#X connect 26 0 25 0;
#X connect 27 0 28 0;
#X connect 28 0 29 0;
#X connect 29 0 36 0;
#X connect 30 0 31 0;
#X connect 30 0 34 0;
#X connect 31 0 32 0;
#X connect 32 0 33 1;
#X connect 33 0 25 0;
#X connect 35 0 27 0;
#X connect 36 0 30 0;
#X restore 172 607 pd filter;
#X obj 355 520 *;
#X obj 171 580 hip~ 5;
#X obj 929 550 s \$0-t-len;
#X obj 929 505 - 1;
#X msg 992 499 set soundlength-BOUCLES/\$1;
#X obj 929 527 tabread;
#X msg 763 494 set ST-BOUCLES/\$2-\$1;
#X obj 171 558 tabread4~;
#X connect 0 0 41 0;
#X connect 2 0 0 0;
#X connect 3 0 19 0;
#X connect 4 0 37 0;
#X connect 5 0 6 0;
#X connect 6 0 9 0;
#X connect 7 0 8 0;
#X connect 8 0 6 1;
#X connect 9 0 10 0;
#X connect 10 0 138 0;
#X connect 11 0 119 0;
#X connect 11 0 40 0;
#X connect 12 0 30 0;
#X connect 13 0 124 1;
#X connect 14 0 11 1;
#X connect 17 0 6 2;
#X connect 18 0 129 0;
#X connect 19 0 5 1;
#X connect 19 0 8 1;
#X connect 19 0 16 0;
#X connect 19 0 17 0;
#X connect 21 0 17 0;
#X connect 21 1 17 1;
#X connect 22 0 21 0;
#X connect 23 0 2 1;
#X connect 24 0 2 1;
#X connect 25 0 2 1;
#X connect 26 0 2 1;
#X connect 27 0 2 1;
#X connect 28 0 0 0;
#X connect 29 0 31 0;
#X connect 29 0 55 0;
#X connect 30 0 13 0;
#X connect 31 0 30 0;
#X connect 31 1 30 1;
#X connect 32 0 33 0;
#X connect 33 0 34 0;
#X connect 34 0 35 0;
#X connect 35 0 113 0;
#X connect 35 0 2 0;
#X connect 36 0 1 0;
#X connect 37 0 108 0;
#X connect 38 0 37 0;
#X connect 39 0 38 0;
#X connect 41 0 42 1;
#X connect 41 0 80 0;
#X connect 41 0 82 0;
#X connect 41 0 106 0;
#X connect 41 0 134 0;
#X connect 42 0 103 0;
#X connect 42 0 77 0;
#X connect 43 0 44 0;
#X connect 44 0 41 0;
#X connect 46 0 5 0;
#X connect 46 0 15 0;
#X connect 46 1 7 0;
#X connect 46 2 47 0;
#X connect 47 0 48 0;
#X connect 48 0 49 0;
#X connect 49 0 42 0;
#X connect 50 0 52 1;
#X connect 51 0 52 1;
#X connect 52 0 54 0;
#X connect 53 0 63 0;
#X connect 53 1 50 0;
#X connect 53 1 60 0;
#X connect 54 0 29 0;
#X connect 56 0 74 0;
#X connect 57 0 61 1;
#X connect 58 0 59 0;
#X connect 58 1 53 0;
#X connect 59 0 29 0;
#X connect 60 0 51 0;
#X connect 61 0 58 0;
#X connect 62 0 60 0;
#X connect 63 0 51 0;
#X connect 63 1 52 0;
#X connect 64 0 65 0;
#X connect 64 0 112 0;
#X connect 64 0 67 0;
#X connect 64 1 67 0;
#X connect 65 0 66 0;
#X connect 66 0 65 1;
#X connect 66 0 69 0;
#X connect 67 0 68 0;
#X connect 68 0 65 1;
#X connect 69 0 70 0;
#X connect 69 0 72 0;
#X connect 70 0 71 0;
#X connect 71 0 52 1;
#X connect 72 0 73 0;
#X connect 74 0 105 0;
#X connect 75 0 74 1;
#X connect 76 0 43 0;
#X connect 77 0 76 0;
#X connect 78 0 79 0;
#X connect 79 0 76 1;
#X connect 82 0 137 0;
#X connect 83 0 84 0;
#X connect 83 1 85 0;
#X connect 83 2 86 0;
#X connect 83 3 87 0;
#X connect 84 0 88 0;
#X connect 85 0 88 0;
#X connect 86 0 88 0;
#X connect 87 0 88 0;
#X connect 88 0 97 0;
#X connect 89 0 90 1;
#X connect 89 1 91 1;
#X connect 90 0 32 0;
#X connect 91 0 92 0;
#X connect 92 0 93 0;
#X connect 93 0 94 0;
#X connect 94 0 95 0;
#X connect 95 0 107 0;
#X connect 95 0 111 0;
#X connect 96 0 82 1;
#X connect 96 1 83 0;
#X connect 96 1 135 0;
#X connect 98 0 99 0;
#X connect 99 0 34 1;
#X connect 99 0 114 0;
#X connect 100 0 110 0;
#X connect 101 0 102 0;
#X connect 102 0 95 0;
#X connect 105 0 61 0;
#X connect 105 0 64 0;
#X connect 105 4 89 0;
#X connect 105 4 130 1;
#X connect 107 0 96 0;
#X connect 108 0 18 0;
#X connect 109 0 108 1;
#X connect 110 0 43 0;
#X connect 110 1 43 1;
#X connect 112 0 90 0;
#X connect 112 1 91 0;
#X connect 115 0 116 0;
#X connect 116 0 117 0;
#X connect 117 0 120 0;
#X connect 118 0 40 1;
#X connect 119 0 121 0;
#X connect 120 0 40 2;
#X connect 121 0 118 0;
#X connect 122 0 14 0;
#X connect 124 0 122 0;
#X connect 125 0 126 0;
#X connect 125 0 128 0;
#X connect 126 0 46 0;
#X connect 127 0 124 0;
#X connect 128 0 124 0;
#X connect 129 0 125 0;
#X connect 129 1 126 1;
#X connect 129 2 127 0;
#X connect 130 0 11 0;
#X connect 132 0 130 0;
#X connect 134 0 136 0;
#X connect 135 0 136 0;
#X connect 136 0 133 0;
#X connect 137 0 138 0;
#X connect 138 0 132 0;
