#N canvas 269 80 595 637 10;
#X obj 104 21 r CLOCK;
#X obj 104 265 line~;
#X obj 75 371 osc~;
#X obj 114 420 *~;
#X obj 132 477 *~;
#X obj 185 490 hsl 128 15 0 1 0 1 empty empty empty -2 -8 0 10 -262144
-1 -1 10400 1;
#X obj 185 536 pow 2;
#X msg 185 558 \$1 10;
#X obj 185 580 line~;
#X obj 244 159 sel 1;
#X obj 243 180 tgl 15 0 empty empty empty 17 7 0 10 -262144 -1 -1 1
1;
#X obj 104 158 spigot;
#X msg 180 262 0.25;
#X floatatom 166 307 5 0 0 0 - - -, f 5;
#X obj 76 348 +~ 30;
#X obj 75 328 *~ 200;
#X msg 104 243 1 \, 0 300;
#X obj 310 231 noise~;
#X floatatom 54 162 5 0 0 0 - - -, f 5;
#X floatatom 56 229 5 0 0 0 - - -, f 5;
#X obj 104 221 sel 1;
#X obj 366 262 mtof;
#X obj 369 240 hsl 128 15 0 132 0 0 empty empty empty -2 -8 0 10 -262144
-1 -1 9100 1;
#X floatatom 377 289 7 0 0 0 - - -, f 7;
#X floatatom 411 319 5 0 0 0 - - -, f 5;
#X obj 290 315 bp~ 2000 5;
#X obj 349 364 delwrite~ \$0-d 1000;
#X obj 262 408 delread~ \$0-d 200;
#X floatatom 264 367 5 0 0 0 - - -, f 5;
#X obj 262 430 *~ 0.4;
#X obj 238 264 / 4;
#X obj 104 188 mod 2;
#X obj 104 75 ndmetro;
#X obj 168 117 unpack f f;
#X msg 190 53 1;
#X msg 226 52 2;
#X msg 195 80 nd 4 \$1;
#X obj 43 105 print;
#X obj 57 66 / 2;
#X msg 260 53 4;
#X msg 298 54 3;
#X obj 120 517 out~;
#X obj 281 129 boutonled \$1 6;
#X obj 224 15 loadbang;
#X obj 370 154 unpack f f;
#X obj 393 56 i;
#X floatatom 460 163 5 0 0 0 - - -, f 5;
#X obj 393 34 + 3;
#X obj 350 104 < 3;
#X obj 393 75 clip 1 5;
#X obj 479 82 sel 5;
#X msg 479 104 8;
#X floatatom 479 126 5 0 0 0 - - -, f 5;
#X obj 479 145 change;
#X obj 393 12 * 4;
#X floatatom 422 268 5 0 0 0 - - -, f 5;
#X obj 378 197 * 20;
#X obj 283 173 unpack f f f;
#X obj 378 219 + 95;
#X obj 104 287 pow~ 5;
#X connect 0 0 32 0;
#X connect 1 0 59 0;
#X connect 3 0 4 0;
#X connect 3 0 26 0;
#X connect 4 0 41 0;
#X connect 4 0 41 1;
#X connect 5 0 6 0;
#X connect 6 0 7 0;
#X connect 7 0 8 0;
#X connect 8 0 4 1;
#X connect 9 0 10 0;
#X connect 10 0 11 1;
#X connect 10 0 42 0;
#X connect 11 0 31 0;
#X connect 12 0 2 1;
#X connect 13 0 14 1;
#X connect 14 0 2 0;
#X connect 15 0 14 0;
#X connect 16 0 1 0;
#X connect 17 0 25 0;
#X connect 20 0 16 0;
#X connect 20 0 12 0;
#X connect 21 0 25 1;
#X connect 22 0 21 0;
#X connect 22 0 55 0;
#X connect 23 0 25 1;
#X connect 24 0 25 2;
#X connect 25 0 3 0;
#X connect 27 0 29 0;
#X connect 28 0 27 0;
#X connect 29 0 4 0;
#X connect 29 0 26 0;
#X connect 30 0 27 0;
#X connect 31 0 19 0;
#X connect 31 0 20 0;
#X connect 32 0 11 0;
#X connect 32 0 18 0;
#X connect 33 1 30 0;
#X connect 34 0 36 0;
#X connect 35 0 36 0;
#X connect 36 0 32 0;
#X connect 39 0 36 0;
#X connect 40 0 36 0;
#X connect 42 0 9 0;
#X connect 42 1 57 0;
#X connect 42 4 44 0;
#X connect 43 0 35 0;
#X connect 45 0 49 0;
#X connect 47 0 45 0;
#X connect 48 0 20 1;
#X connect 49 0 46 0;
#X connect 49 0 48 0;
#X connect 49 0 50 0;
#X connect 50 0 51 0;
#X connect 50 1 52 0;
#X connect 51 0 52 0;
#X connect 52 0 53 0;
#X connect 53 0 36 0;
#X connect 54 0 47 0;
#X connect 56 0 58 0;
#X connect 57 0 56 0;
#X connect 57 1 54 0;
#X connect 58 0 21 0;
#X connect 59 0 15 0;
#X connect 59 0 3 1;
