#N canvas 665 116 473 361 10;
#X obj 70 182 pack s s;
#X obj 109 53 r DATASDIR;
#X obj 70 278 soundfiler;
#X msg 70 255 read -resize \$1 \$2;
#X obj 102 122 list prepend \$1 \$2;
#X obj 221 236 loadbang;
#X text 65 8 notetable num bank;
#X obj 221 280 - 1;
#X obj 221 258 f \$1;
#X obj 70 97 t s b;
#X msg 70 211 symbol \$1/\$2.wav;
#X obj 70 74 symbol;
#X obj 70 31 r LOADTABLES;
#X msg 102 146 symbol \$2/\$1;
#X obj 285 125 table ST-\$2-\$1;
#X obj 70 233 list append ST-\$2-\$1;
#X obj 70 304 tabwrite soundlength-\$2;
#X connect 0 0 10 0;
#X connect 1 0 11 1;
#X connect 2 0 16 0;
#X connect 3 0 2 0;
#X connect 4 0 13 0;
#X connect 5 0 8 0;
#X connect 7 0 16 1;
#X connect 8 0 7 0;
#X connect 9 0 0 0;
#X connect 9 1 4 0;
#X connect 10 0 15 0;
#X connect 11 0 9 0;
#X connect 12 0 11 0;
#X connect 13 0 0 1;
#X connect 15 0 3 0;
